<svg xmlns="http://www.w3.org/2000/svg" width="646.991" height="276.49" viewBox="0 0 646.991 276.49">
  <defs>
    <style>
      .cls-1 {
        opacity: 0.5;
      }

      .cls-2 {
        fill: none;
        stroke: #8a6d60;
      }
    </style>
  </defs>
  <g id="Group_33" data-name="Group 33" class="cls-1" transform="translate(-426.513 -611.755)">
    <g id="Group_28" data-name="Group 28">
      <path id="Path_62" data-name="Path 62" class="cls-2" d="M451.853,885.077h-3.9q-6.158,0-8.006-1.848t-3.49-9.032a3.23,3.23,0,0,0-1.231-1.951,11.884,11.884,0,0,0-1.848-.923,7.587,7.587,0,0,1-1.026-.411q-5.337-2.665-5.338-7.8a16.944,16.944,0,0,1,.821-4.927,13.164,13.164,0,0,1,2.464-6.055q1.846-2.358,6.158-2.772a56.03,56.03,0,0,0,8.417-1.026q3.282-.617,6.569-1.026,9.239-.41,10.264-10.06,5.745-34.279,11.907-68.154,2.049-10.671,3.9-21.349,3.9-21.758,8.212-43.52a19.367,19.367,0,0,0,.2-2.669q0-3.489-4.927-4.106t-6.672-1.745q-1.746-1.125-1.745-4.208a44.5,44.5,0,0,1,.411-5.337,9.719,9.719,0,0,0,.2-1.848q0-4.1-4.311-3.7h-1.437a4.833,4.833,0,0,1-4.208-1.848,17.956,17.956,0,0,1-2.156-3.9,1.629,1.629,0,0,0-.2-.616,13.663,13.663,0,0,1-.821-4.721,15.379,15.379,0,0,1,3.8-9.957,16.522,16.522,0,0,1,9.545-5.85q14.166-2.872,28.124-5.748,11.7-2.463,23.2-4.927a3.918,3.918,0,0,1,1.231-.205,18.816,18.816,0,0,1,5.953-1.027,8.858,8.858,0,0,1,4.311,1.129,11.552,11.552,0,0,1,3.9,4,4.335,4.335,0,0,0,3.7,2.053,10.062,10.062,0,0,0,3.7-.821c.821-.134,1.571-.272,2.258-.41a54.542,54.542,0,0,1,10.47-1.437q5.744,0,5.337,5.132a53.6,53.6,0,0,1-1.642,10.88,22.031,22.031,0,0,1-1.232,4.516,7.457,7.457,0,0,1-3.08,3.49,37.094,37.094,0,0,0-13.138,12.522,7.018,7.018,0,0,1-3.695,2.771,21.117,21.117,0,0,1-4.721.924,26.867,26.867,0,0,0-3.49.616,43.524,43.524,0,0,0-7.8,2.053,5.585,5.585,0,0,0-3.284,3.182,40.316,40.316,0,0,0-1.643,6.877,6.819,6.819,0,0,1-.205,1.642q-5.543,34.488-11.5,68.975-2.877,17.244-5.748,34.488-1.029,5.542-2.052,11.291-1.848,9.237-3.49,18.475a30.936,30.936,0,0,0-.616,5.543q0,4.311,2.566,5.851t8.519,1.539h5.132a15.162,15.162,0,0,1,2.464-.205,7.928,7.928,0,0,1,3.387.718,6.735,6.735,0,0,1,2.771,2.772,5.138,5.138,0,0,1,.616,2.668,21.026,21.026,0,0,1-2.156,8.314,36.99,36.99,0,0,1-4.413,7.7,28.093,28.093,0,0,1-13.754,9.751,57.836,57.836,0,0,1-16.834,2.36,218.012,218.012,0,0,0-25.865,2.669Q455.955,884.46,451.853,885.077Z"/>
      <path id="Path_63" data-name="Path 63" class="cls-2" d="M583.85,789.62a30.866,30.866,0,0,0,6.98-9.854,2.546,2.546,0,0,1,.615-1.026q10.263-20.324,20.734-40.647,10.263-20.115,20.529-40.441a50.331,50.331,0,0,1,10.879-15.806,17.786,17.786,0,0,1,4.517,5.132,33.256,33.256,0,0,1,2.668,5.953,25.468,25.468,0,0,0,1.643,4.106,23.175,23.175,0,0,1,11.906-8.417l.822-.41a11.251,11.251,0,0,1,4.721-1.437q3.695,0,4.311,6.774l.41,3.284a74.737,74.737,0,0,1,.411,7.8,81.522,81.522,0,0,1-.821,11.5q-.207,3.695-.411,7.6-2.26,28.743-6.774,56.863-2.262,14.165-4.106,28.535a4.6,4.6,0,0,1-.2,1.437,5.9,5.9,0,0,0-.616,2.668v.616a6.2,6.2,0,0,0,1.643,3.285,35.719,35.719,0,0,0,5.748-9.854q.615-1.434,1.231-2.669a534.3,534.3,0,0,0,24.839-61.79,427.277,427.277,0,0,1,26.687-62q3.282-8.208,7.6-8.211,3.282,0,8.622,5.337Q740.892,680,742.74,680a5.193,5.193,0,0,0,3.079-1.026,9,9,0,0,0,1.642-.821,16.041,16.041,0,0,1,5.338-1.232q3.488,0,3.9,3.9v.411a7.735,7.735,0,0,1,.205,1.848,14.007,14.007,0,0,1-.205,2.258l-.2,2.052a29.825,29.825,0,0,1-2.669,12.317,506.52,506.52,0,0,0-27.508,65.281q-4.725,12.933-9.443,25.455-7.391,19.707-16.217,38.388a177.134,177.134,0,0,1-41.468,53.784q-5.34,5.135-10.059,5.132c-2.321,0-4.581-1-7-3.219a28.787,28.787,0,0,1-5.107-6.84,22.034,22.034,0,0,0-4.106-5.747,36.175,36.175,0,0,1-8.417-11.8,43.188,43.188,0,0,1-3.284-13.241q-.207-2.463-.206-4.927V839.3q.819-12.109,2.053-24.018l.821-10.469h-.615a3.49,3.49,0,0,0-2.874,1.026,4.979,4.979,0,0,0-1.027,2.464,14.129,14.129,0,0,1-.821,1.437,310.518,310.518,0,0,1-55.427,71.028,3.7,3.7,0,0,0-1.026,1.026,21.429,21.429,0,0,1-3.285,2.669,8.075,8.075,0,0,1-4.31,1.437q-3.9,0-6.98-3.9a8.342,8.342,0,0,1-1.027-3.284V874.2a4.607,4.607,0,0,0-1.642-3.08,9.092,9.092,0,0,0-3.079-1.436,16.374,16.374,0,0,1-2.874-1.13,7.732,7.732,0,0,1-2.669-2.36,17.769,17.769,0,0,1-3.49-8.622v-1.848a33.868,33.868,0,0,1,.411-5.132q5.957-44.341,14.165-88.067,3.078-17.244,5.748-34.487,5.744-34.9,13.138-68.976l.616-2.874a21.321,21.321,0,0,1,1.642-6.056,9.152,9.152,0,0,1,4.516-4.413,5.86,5.86,0,0,1,2.977,2.361,19.439,19.439,0,0,1,1.539,3.181,9.671,9.671,0,0,0,2.053,4.106,5.3,5.3,0,0,1,1.642,3.079v.616a4.657,4.657,0,0,1-1.026,3.08c-2.874,3.56,17.244-11.086,18.065-11.5a5.1,5.1,0,0,1,2.258-.616q3.282,0,4.1,5.132l.206,1.232a92.568,92.568,0,0,1-2.053,19.3q-8.213,44.341-16.423,88.888-1.645,9.651-3.489,19.092a.6.6,0,0,1-.206.41v2.669A8.145,8.145,0,0,0,583.85,789.62Z"/>
      <path id="Path_64" data-name="Path 64" class="cls-2" d="M763.063,689.031h-.411a5.6,5.6,0,0,0-2.874.718,19.069,19.069,0,0,0-2.258,1.54,9.6,9.6,0,0,1-1.848,1.437,3.972,3.972,0,0,1-2.052.616,4.7,4.7,0,0,1-2.874-1.437,8.717,8.717,0,0,1-2.669-5.954,16.27,16.27,0,0,1,1.437-6.569,8.065,8.065,0,0,0,.616-1.642,24.343,24.343,0,0,1,13.549-13.754A98.692,98.692,0,0,1,809.046,652.9a89.941,89.941,0,0,1,16.833,1.642,28.2,28.2,0,0,1,3.285.616,86.972,86.972,0,0,0,10.47,1.437,75.612,75.612,0,0,1,36.335,11.29q34.281,20.324,34.282,56.864a96.122,96.122,0,0,1-1.231,14.986q-7.188,44.956-42.7,74.928a193.642,193.642,0,0,1-40.851,26.79A280.822,280.822,0,0,1,780.1,858.8a92.859,92.859,0,0,0-14.062,5.132,31.1,31.1,0,0,0-11.6,9.444q-1.645,2.054-3.285,2.052a2.5,2.5,0,0,1-2.258-1.642,8.228,8.228,0,0,0-3.387-4.311,25.728,25.728,0,0,0-4.619-2.053q-1.232-.408-2.463-.821-4.725-1.434-4.722-5.748a9.683,9.683,0,0,1,.411-2.669,7.794,7.794,0,0,0,.41-2.463q0-2.666-3.7-3.079-4.1,0-5.748-2.258a8.833,8.833,0,0,1-1.642-5.338V844.02a38.446,38.446,0,0,1,1.437-8.827,7.293,7.293,0,0,1,5.953-5.338q6.977-1.432,9.34-5.542a30.435,30.435,0,0,0,3.388-9.854q3.9-17.244,8.006-34.488Q759.158,749.8,764.91,719a23.49,23.49,0,0,1,.616-2.669,13.178,13.178,0,0,0,.821-4.516,5.612,5.612,0,0,0-1.129-3.387C764.464,707.4,761.831,693,763.063,689.031Zm19.091,126.66a221.478,221.478,0,0,0,39.825-16.32,113.23,113.23,0,0,0,32.229-25.763,69.646,69.646,0,0,0,16.834-45.984v-3.49a22.76,22.76,0,0,0-8.827-18.065,79.942,79.942,0,0,0-20.323-11.085,65.941,65.941,0,0,0-22.787-3.9q-7.6,0-9.34,1.436t-2.977,8.417q-1.439,7.8-3.079,15.807-3.9,21.145-8.211,42.288-4.518,20.324-9.649,41.673Q784,808.1,782.154,815.691Z"/>
      <path id="Path_65" data-name="Path 65" class="cls-2" d="M930.78,625.6a16.523,16.523,0,0,1,1.026-5.543,12.967,12.967,0,0,1,1.848-3.079q2.666-4.721,4.927-4.721,2.049,0,4.721,4.1a19.308,19.308,0,0,1,2.053,4.106,165.294,165.294,0,0,1,10.88,40.646q.617,2.877,1.026,5.543a3.922,3.922,0,0,1,.205,1.231,6.442,6.442,0,0,1-1.231,3.8,24.228,24.228,0,0,1-2.669,3.182,7.8,7.8,0,0,1-2.053,1.437q-.822.414-1.539.821a1.19,1.19,0,0,0-.719,1.027,12.453,12.453,0,0,1-3.49,7.7,28.092,28.092,0,0,1-6.364,4.619,37.4,37.4,0,0,0-4.516,3.079q-3.492,3.079-6.364,3.079-3.695,0-7.595-4.516-.824-.817-1.642-1.642a15.468,15.468,0,0,0-4.516-3.49q-6.159-2.873-8.007-7.8a37.308,37.308,0,0,1-2.258-10.264,14.852,14.852,0,0,0-.205-2.464v-1.437q0-5.951,5.953-9.032a30.233,30.233,0,0,0,4.927-3.387,4.2,4.2,0,0,0,1.437-3.182,18.6,18.6,0,0,0-1.847-6.569,1.536,1.536,0,0,1-.206-.616,66.273,66.273,0,0,1-5.953-20.528v-1.232q0-4.927,3.079-4.927a8.423,8.423,0,0,1,3.7,1.027C916.75,617.252,927.084,621.768,930.78,625.6Z"/>
    </g>
    <g id="Group_32" data-name="Group 32">
      <g id="Group_31" data-name="Group 31">
        <g id="Group_30" data-name="Group 30">
          <g id="Group_29" data-name="Group 29">
            <path id="Path_66" data-name="Path 66" class="cls-2" d="M1072.977,739.925a10.076,10.076,0,0,0-6.99-9.19c-2.78-.99-6.7-1.23-12.72-.79a6.271,6.271,0,0,0-2.44.72,24.376,24.376,0,0,0-6.13,3.44,62.92,62.92,0,0,0-6.44,5.43c-1.93,1.87-3.631,3.64-5.06,5.26-1.97,2.24-3.26,4.12-3.47,6.34a13.947,13.947,0,0,0,1.52,8.21,10.226,10.226,0,0,0,5.09,5.27l-3.59,10.59c-1.351,3.98-2.641,7.93-3.851,11.75s-2.359,7.42-3.459,10.83l-1.07,3.38q-1.635,4.71-3.61,10.48a64.66,64.66,0,0,0-2.95,11.87l-3.01,11.49a2.046,2.046,0,0,0-.05.24l-1.82,8.36c-.33,1.48-.65,3.01-.98,4.59q-4.232-.735-8.49-1.21a184.837,184.837,0,0,0-20.68-1.19c-4.19,0-7.85.07-10.89.19-3.1.12-6.25.34-9.34.64-2.8.27-5.89.66-9.2,1.17,1.32-1.7,2.57-3.28,3.73-4.74a43.55,43.55,0,0,1,3.02-3.5,6.148,6.148,0,0,0,.75-.92l.98-1.45a6.046,6.046,0,0,0,.91-.84c.829-.95,2.06-2.32,3.67-4.12,1.59-1.77,3.32-3.61,5.12-5.47q2.79-2.88,5.57-5.67c1.74-1.73,3.29-3.17,4.61-4.27.14-.11.27-.24.4-.36l1.631-1.64a1.146,1.146,0,0,0,.11-.11l3.63-3.82a3.96,3.96,0,0,0,.46-.53c.65-.86,1.3-1.68,1.93-2.42a8.216,8.216,0,0,1,1.31-1.22,5.684,5.684,0,0,0,.75-.63,17,17,0,0,0,1.46-1.72c.29-.4.56-.75.83-1.06a4.513,4.513,0,0,1,.34-.4l.11-.11a7.639,7.639,0,0,0,.64-.79l2.96-3.74a54.342,54.342,0,0,0,3.74-4.65q1.665-2.295,3.309-4.68l3.241-4.51a2.115,2.115,0,0,0,.21-.31l4.04-6.42,3.46-5.64c.049-.09.109-.19.16-.28a73.328,73.328,0,0,0,4.77-11.21,37.884,37.884,0,0,0,1.75-15.22,5.941,5.941,0,0,0-.62-2.23,11.059,11.059,0,0,0-1.25-1.9c-.36-.45-.721-.85-1.12-1.26a.752.752,0,0,1-.04-.16,6,6,0,0,0-1.63-2.96,22.338,22.338,0,0,0-2.45-2.09,16.58,16.58,0,0,0-1.92-1.26c-.041-.03-.07-.05-.1-.07a21.3,21.3,0,0,0-9.949-3.48,41.825,41.825,0,0,0-9.82.11,49.83,49.83,0,0,0-20.651,7.05,106.779,106.779,0,0,0-16.5,13.02l-1.359,1.19c-.1.09-.2.18-.29.27-.81.81-1.58,1.61-2.27,2.37-.64.7-1.27,1.46-1.871,2.25a16.229,16.229,0,0,0-1.489,1.49c-.46.52-.9,1.06-1.33,1.62l-.57.65a8.5,8.5,0,0,0-2.39,12.65,14.649,14.649,0,0,0,2.44,2.17,14.818,14.818,0,0,0,2.12,1.94,15.379,15.379,0,0,0,4.429,2.26,5.173,5.173,0,0,0,.521.15c3.769.89,6.9.49,9.32-1.17a16.874,16.874,0,0,0,3.8-3.6l1.12-1.28a140.6,140.6,0,0,1,12.12-12.03,38.053,38.053,0,0,1,13.11-7.72c.13-.04.259-.09.39-.14a35.876,35.876,0,0,1,5.27-1.71,36.673,36.673,0,0,1-1.9,5.27c-.059.14-.119.28-.179.43a61.843,61.843,0,0,1-4.81,10.03,84.594,84.594,0,0,1-5.98,8.8l-4.76,6.23c-.62.83-1.32,1.69-2.08,2.56a28.622,28.622,0,0,0-2.651,3.51,52.937,52.937,0,0,1-3.5,4.37c-1.439,1.61-2.809,3.13-4.139,4.58l-18.5,19.95q-5.115,5.475-10.49,11.31t-10.29,11.2q-4.905,5.37-8.91,9.73c-1.85,2.01-3.39,3.72-4.651,5.14a9.582,9.582,0,0,0-1.2.3,6.129,6.129,0,0,0-4.2,5.13l-.03.39a2.988,2.988,0,0,0-.08.32,5.283,5.283,0,0,0-.6,1.33c-.08.16-.15.32-.22.48a8.234,8.234,0,0,0-.47,6.27,5.721,5.721,0,0,0,.33.81,9.671,9.671,0,0,0,3.06,3.29,11.378,11.378,0,0,0,3.94,2l.09.02a7.139,7.139,0,0,0,.93.71,6.028,6.028,0,0,0,3.16.9,5.914,5.914,0,0,0,1.559-.21c5.031-1.35,9.571-2.61,13.5-3.76,3.73-1.09,7.121-1.94,10.031-2.5,5.88-1.08,10.48-1.9,13.66-2.44,3.11-.53,5.75-.95,7.84-1.25a35.76,35.76,0,0,1,4.889-.39c1.821,0,4.221-.03,7.121-.09,2.98-.06,6.939-.18,12.1-.37,4.319-.16,9.95-.42,16.779-.79a26.471,26.471,0,0,0-.069,3.18,13.437,13.437,0,0,0,2.28,7.45,7.939,7.939,0,0,0,6.42,3.28,11.772,11.772,0,0,0,5.46-1.53,6.771,6.771,0,0,0,1.17-.81l3.09-2.73a5.945,5.945,0,0,0,1.55-2.13l1.09-2.55a5.986,5.986,0,0,0,.45-1.77l.33-3.24a5.612,5.612,0,0,0,.16-.71,5.882,5.882,0,0,0,.19-.9c.45-1.91.9-3.76,1.36-5.57s.97-3.67,1.54-5.48l.91-2.91a5.33,5.33,0,0,0,.2-.88,5.773,5.773,0,0,0,.19-.92l.81-4.03,11.48-39.82c.62-1.54,1.17-3.1,1.63-4.67.4-1.37.839-2.77,1.31-4.17l3.29-10.06q1.095-3.5,2.11-6.79c.6-1.98,1.3-3.94,2.08-5.83.07-.18.13-.35.19-.53.05-.07.1-.15.15-.23a5,5,0,0,0,.459-.82,61.652,61.652,0,0,0,2.621-6.63,25.68,25.68,0,0,1,2.51-5.3q1.485-2.415,3.07-5.12,1.5-2.565,2.93-5.06l.61-.92a5.944,5.944,0,0,0,.509-.93c.131-.21.261-.44.391-.68A17.583,17.583,0,0,0,1072.977,739.925Z"/>
          </g>
        </g>
      </g>
    </g>
  </g>
</svg>
