<svg xmlns="http://www.w3.org/2000/svg" xmlns:xlink="http://www.w3.org/1999/xlink" width="1018" height="975" viewBox="0 0 1018 975">
  <defs>
    <linearGradient id="linear-gradient" x1="0.5" x2="0.5" y2="1" gradientUnits="objectBoundingBox">
      <stop offset="0" stop-color="#8c8ed2"/>
      <stop offset="1" stop-color="#512863"/>
    </linearGradient>
    <filter id="Path_1" x="150.545" y="114.858" width="856.293" height="841.954" filterUnits="userSpaceOnUse">
      <feOffset dy="9" input="SourceAlpha"/>
      <feGaussianBlur stdDeviation="49.5" result="blur"/>
      <feFlood flood-opacity="0.102"/>
      <feComposite operator="in" in2="blur"/>
      <feComposite in="SourceGraphic"/>
    </filter>
    <linearGradient id="linear-gradient-2" x1="1.043" y1="1.287" x2="0.035" y2="-0.365" gradientUnits="objectBoundingBox">
      <stop offset="0" stop-color="#f6b1a2"/>
      <stop offset="1" stop-color="#eb7198"/>
    </linearGradient>
    <linearGradient id="linear-gradient-3" x1="0.27" y1="-0.095" x2="0.938" y2="1.1" gradientUnits="objectBoundingBox">
      <stop offset="0" stop-color="#eb7198"/>
      <stop offset="1" stop-color="#f6b1a2"/>
    </linearGradient>
    <linearGradient id="linear-gradient-4" x1="0.5" y1="-0.002" x2="0.5" y2="1.209" xlink:href="#linear-gradient-3"/>
    <linearGradient id="linear-gradient-5" y1="0.5" x2="1" y2="0.5" gradientUnits="objectBoundingBox">
      <stop offset="0" stop-color="#e9a298"/>
      <stop offset="0.123" stop-color="#e39798"/>
      <stop offset="0.426" stop-color="#d78298"/>
      <stop offset="0.721" stop-color="#d07598"/>
      <stop offset="1" stop-color="#ce7198"/>
    </linearGradient>
    <filter id="Path_6" x="132.462" y="176.088" width="329.685" height="372.691" filterUnits="userSpaceOnUse">
      <feOffset dy="3" input="SourceAlpha"/>
      <feGaussianBlur stdDeviation="3" result="blur-2"/>
      <feFlood flood-opacity="0.161"/>
      <feComposite operator="in" in2="blur-2"/>
      <feComposite in="SourceGraphic"/>
    </filter>
    <linearGradient id="linear-gradient-6" x1="0" y1="0.5" x2="1" y2="0.5" xlink:href="#linear-gradient-2"/>
    <linearGradient id="linear-gradient-7" x1="0.974" y1="1.089" x2="-0.077" y2="-0.233" xlink:href="#linear-gradient-2"/>
    <filter id="Path_10" x="544.464" y="142.35" width="245.686" height="422.524" filterUnits="userSpaceOnUse">
      <feOffset dy="3" input="SourceAlpha"/>
      <feGaussianBlur stdDeviation="3" result="blur-3"/>
      <feFlood flood-opacity="0.161"/>
      <feComposite operator="in" in2="blur-3"/>
      <feComposite in="SourceGraphic"/>
    </filter>
    <linearGradient id="linear-gradient-8" x1="0.5" y1="0.973" x2="0.5" y2="0.351" xlink:href="#linear-gradient-2"/>
    <linearGradient id="linear-gradient-9" x1="0.5" y1="1.074" x2="0.5" y2="0.244" gradientUnits="objectBoundingBox">
      <stop offset="0" stop-color="#e99898"/>
      <stop offset="0.011" stop-color="#e89798"/>
      <stop offset="0.353" stop-color="#d98298"/>
      <stop offset="0.686" stop-color="#d07598"/>
      <stop offset="1" stop-color="#ce7198"/>
    </linearGradient>
    <linearGradient id="linear-gradient-10" x1="0.5" x2="0.5" y2="1" gradientUnits="objectBoundingBox">
      <stop offset="0" stop-color="#5179bc"/>
      <stop offset="0.01" stop-color="#5179bc"/>
      <stop offset="0.537" stop-color="#52bbeb"/>
      <stop offset="1" stop-color="#5bc1a1"/>
    </linearGradient>
    <linearGradient id="linear-gradient-11" x1="0.5" x2="0.5" y2="1" gradientUnits="objectBoundingBox">
      <stop offset="0" stop-color="#6182b8"/>
      <stop offset="0.573" stop-color="#5179bc"/>
      <stop offset="0.887" stop-color="#52bbeb"/>
      <stop offset="1" stop-color="#5bc1a1"/>
    </linearGradient>
    <linearGradient id="linear-gradient-13" x1="0.776" y1="-0.164" x2="0.114" y2="0.781" gradientUnits="objectBoundingBox">
      <stop offset="0" stop-color="#0071bc"/>
      <stop offset="1" stop-color="#29abe2"/>
    </linearGradient>
    <linearGradient id="linear-gradient-14" x1="0.5" y1="1.094" x2="0.5" y2="-0.075" gradientUnits="objectBoundingBox">
      <stop offset="0" stop-color="#d7d7dc"/>
      <stop offset="1" stop-color="#fff"/>
    </linearGradient>
    <filter id="Path_23" x="349.859" y="366.816" width="448.05" height="485.621" filterUnits="userSpaceOnUse">
      <feOffset dy="-2" input="SourceAlpha"/>
      <feGaussianBlur stdDeviation="18" result="blur-4"/>
      <feFlood flood-opacity="0.031"/>
      <feComposite operator="in" in2="blur-4"/>
      <feComposite in="SourceGraphic"/>
    </filter>
    <filter id="Path_24" x="501.29" y="292.032" width="190.18" height="402.952" filterUnits="userSpaceOnUse">
      <feOffset dy="3" input="SourceAlpha"/>
      <feGaussianBlur stdDeviation="3" result="blur-5"/>
      <feFlood flood-opacity="0.161"/>
      <feComposite operator="in" in2="blur-5"/>
      <feComposite in="SourceGraphic"/>
    </filter>
    <linearGradient id="linear-gradient-15" x1="0.041" y1="0.25" x2="1.311" y2="0.827" gradientUnits="objectBoundingBox">
      <stop offset="0" stop-color="#d4145a"/>
      <stop offset="1" stop-color="#ffff8f"/>
    </linearGradient>
    <linearGradient id="linear-gradient-16" x1="-0.1" y1="0.297" x2="1.535" y2="0.862" xlink:href="#linear-gradient-15"/>
    <linearGradient id="linear-gradient-17" x1="0.287" y1="0.5" x2="1.287" y2="0.5" xlink:href="#linear-gradient-2"/>
    <linearGradient id="linear-gradient-18" x1="0.859" y1="1.091" x2="0.049" y2="0.317" gradientUnits="objectBoundingBox">
      <stop offset="0" stop-color="#d4145a"/>
      <stop offset="1" stop-color="#ed9279"/>
    </linearGradient>
    <linearGradient id="linear-gradient-19" x1="0" y1="0.5" x2="1" y2="0.5" xlink:href="#linear-gradient-2"/>
    <linearGradient id="linear-gradient-20" x1="1.009" y1="1.037" x2="0.227" y2="-0.102" gradientUnits="objectBoundingBox">
      <stop offset="0" stop-color="#ce7198"/>
      <stop offset="0.279" stop-color="#d07598"/>
      <stop offset="0.574" stop-color="#d78298"/>
      <stop offset="0.877" stop-color="#e39798"/>
      <stop offset="1" stop-color="#e9a298"/>
    </linearGradient>
    <linearGradient id="linear-gradient-21" x1="0.268" y1="0.546" x2="1.101" y2="0.343" xlink:href="#linear-gradient-20"/>
    <linearGradient id="linear-gradient-22" x1="0.477" y1="0.508" x2="0.706" y2="0.374" xlink:href="#linear-gradient-20"/>
    <linearGradient id="linear-gradient-23" x1="0.398" y1="0.55" x2="0.744" y2="0.312" xlink:href="#linear-gradient-2"/>
    <linearGradient id="linear-gradient-24" x1="-0.983" y1="0.597" x2="1.176" y2="0.392" xlink:href="#linear-gradient-20"/>
    <filter id="Ellipse_4" x="0" y="507.5" width="393" height="393" filterUnits="userSpaceOnUse">
      <feOffset dy="3" input="SourceAlpha"/>
      <feGaussianBlur stdDeviation="49.5" result="blur-6"/>
      <feFlood flood-opacity="0.11"/>
      <feComposite operator="in" in2="blur-6"/>
      <feComposite in="SourceGraphic"/>
    </filter>
    <filter id="Ellipse_5" x="596.5" y="712" width="264" height="263" filterUnits="userSpaceOnUse">
      <feOffset dy="3" input="SourceAlpha"/>
      <feGaussianBlur stdDeviation="34" result="blur-7"/>
      <feFlood flood-opacity="0.161"/>
      <feComposite operator="in" in2="blur-7"/>
      <feComposite in="SourceGraphic"/>
    </filter>
    <filter id="Ellipse_7" x="12" y="59.5" width="390" height="390" filterUnits="userSpaceOnUse">
      <feOffset dy="3" input="SourceAlpha"/>
      <feGaussianBlur stdDeviation="49.5" result="blur-8"/>
      <feFlood flood-opacity="0.161"/>
      <feComposite operator="in" in2="blur-8"/>
      <feComposite in="SourceGraphic"/>
    </filter>
    <filter id="Ellipse_8" x="625" y="140.5" width="393" height="393" filterUnits="userSpaceOnUse">
      <feOffset dy="3" input="SourceAlpha"/>
      <feGaussianBlur stdDeviation="49.5" result="blur-9"/>
      <feFlood flood-opacity="0.161"/>
      <feComposite operator="in" in2="blur-9"/>
      <feComposite in="SourceGraphic"/>
    </filter>
    <filter id="Ellipse_9" x="580.5" y="0" width="238" height="239" filterUnits="userSpaceOnUse">
      <feOffset dy="3" input="SourceAlpha"/>
      <feGaussianBlur stdDeviation="30" result="blur-10"/>
      <feFlood flood-opacity="0.161"/>
      <feComposite operator="in" in2="blur-10"/>
      <feComposite in="SourceGraphic"/>
    </filter>
    <linearGradient id="linear-gradient-29" x1="0.5" x2="0.5" y2="1" gradientUnits="objectBoundingBox">
      <stop offset="0" stop-color="#8c3cb4"/>
      <stop offset="1" stop-color="#532561"/>
    </linearGradient>
  </defs>
  <g id="Group_26" data-name="Group 26" transform="translate(-1008.5 -82)">
    <g id="Group_6" data-name="Group 6" transform="translate(197.415 36.813)">
      <g transform="matrix(1, 0, 0, 1, 811.09, 45.19)" filter="url(#Path_1)">
        <path id="Path_1-2" data-name="Path 1" d="M-1428.071,360.308c-76.841-42.979-121.773-161.822-69.027-229.221,27.692-35.384,86.3-80.435,183.637-70.329,87.505,9.085,213.983,70.3,246.152,97.68,33.117,28.182,104.911,91.441,106.495,161.1,1.638,72.008-10.679,119.627-94.333,191.008-59.645,50.895-148.953,79.736-200.046,90.782-19.9,4.3-102.246,7.782-121.14-19.195-17.837-25.463-11.984-77.629-6.259-94.286C-1375.729,467.882-1351.23,403.287-1428.071,360.308Z" transform="translate(1819.02 195.04)" fill="url(#linear-gradient)"/>
      </g>
      <g id="Group_3" data-name="Group 3" transform="translate(926.634 142.75)">
        <g id="Group_4" data-name="Group 4" transform="translate(0 0)">
          <path id="Path_2" data-name="Path 2" d="M418.127,399.312l-30.6-8.209S271.864,413.99,245.7,382.059c-26.129-31.932-59.3-81.118-74.594-128.4-15.331-47.254-13.4-55.783-13.4-55.783s2.024-11.59,1.06-18.735c-.964-7.113.322-16.931,1.9-21.181,1.606-4.249-.418-5.73,1.606-13.2,2.026-7.435,4.822-11.137,4.468-11.749-.386-.644-1.8-.322-1.8-.322s-6.749-2.735-11.859,1.418c0,0,.644-15.226,1.06-17.866.418-2.671-.225-22.275.225-24.722.418-2.446,1.157-22.017,1.157-22.017s1.543-5.054.837-6.759c-.676-1.705-3.856-.8-4.243-.129-.354.708-6.268-.032-8.163,6.985-1.929,7.017-3.728,10.236-3.728,17.156,0,0-7.779-21.309-7.97-25.557C132.029,56.913,130,51.6,130,50.12s-1.9-2.864-2.378-2.092c-.483.8-.706,2.415-1.35,2.349a6.58,6.58,0,0,0-6.588,3.413c-2.058,3.831-1.318,6.5-1.318,6.5a20.268,20.268,0,0,0-2.186,2.479c-.417.8-5.848,1.062-6.46,5.987-.642,4.893,3.7,19.089,5.3,22.178s6.813,19.475,6.813,20.987c0,1.48.515,13.842.515,13.842s-8.389-18.542-9.577-21.309c-1.157-2.769-3.375-5.955-4.146-8.82-.738-2.9-1.992-6.116-2.635-6.244-.644-.1-2.185.9-2.732,2.607,0,0-4.884,1.224-4.146,8.273.771,7.017,5.979,17.382,5.85,18.767-.1,1.384,4.595,13.519,4.691,17.028.1,3.541,1.9,13,1.7,14.807-.225,1.8-3.182,8.4-3.182,13.519s1.062,10.751,1.062,12.362c0,1.577.835,20.634.835,22.146,0,1.48-.964,3.282-1.479,7.242-.547,3.928-1.189,20.119,5.11,25.848,6.268,5.762,7.1,12.78,7.521,15.033.449,2.22,9.256,47.158,16.069,67.18,6.813,19.99,10.509,37.146,17.322,52.05s15.94,36.825,17.644,43.23c1.7,6.373,7.552,25.977,12.213,30,4.691,4.055,22.979,9.786,36.027,13.422,13.082,3.606,140.993,43.875,216.135,31.9Z" transform="translate(-99.042 -47.807)" fill="#f6b1a2"/>
          <path id="Path_3" data-name="Path 3" d="M120.34,107.042s-8.389-18.542-9.578-21.309c-1.157-2.769-3.375-5.955-4.146-8.82q-.241-1.014-.579-2.027c-1.9-.322-4.563.064-4.017,5.054.869,7.66,7.361,21.084,8.614,24.592,1.285,3.509,3.953,19.7,4.275,21.181s6.138-6.5,6.138-11.717-.706-6.952-.706-6.952Z" transform="translate(-97.027 -29.084)" fill-rule="evenodd" fill="url(#linear-gradient-2)"/>
          <path id="Path_4" data-name="Path 4" d="M129.666,85.1s-7.779-21.309-7.97-25.557a39.241,39.241,0,0,0-1.511-7.726c-1.318-1.352-2.957-2.317-4.307-1-2.828,2.7-1.221,18.09-.547,20.7.708,2.606,7.618,27.843,7.618,32.929,0,5.118-1.221,19.507,1.382,21.631,0,0,4.178-36.085,5.335-40.977Z" transform="translate(-88.484 -46.155)" fill-rule="evenodd" fill="url(#linear-gradient-3)"/>
          <path id="Path_5" data-name="Path 5" d="M138.668,126.236a10.845,10.845,0,0,0-1.253.871l1.253-.871Zm-1.253.871s.644-15.226,1.06-17.866c.418-2.671-.225-22.275.225-24.722.418-2.446,1.157-22.017,1.157-22.017s.386-1.287.708-2.8c-.676-1.385-1.833-2.64-3.6-1.1-3.148,2.7-5.045,20.5-6.234,28.682-1.157,8.207-4.981,33.219-4.884,39.624.1,6.375-9.256,24.658-.418,21.568,0,0-.8-12.587,11.988-21.374Z" transform="translate(-83.378 -40.81)" fill-rule="evenodd" fill="url(#linear-gradient-4)"/>
          <g transform="matrix(1, 0, 0, 1, -115.55, -97.56)" filter="url(#Path_6)">
            <path id="Path_6-2" data-name="Path 6" d="M254.888,359.254c-8.453-2.64-15.4-6.437-19.8-11.813-26.129-31.932-59.3-81.118-74.594-128.4-15.331-47.254-13.4-55.783-13.4-55.783s2.024-11.59,1.06-18.735c-.964-7.113.322-16.931,1.9-21.181,1.606-4.249-.418-5.73,1.606-13.2,2.026-7.435,4.822-11.137,4.468-11.749-.386-.644-1.8-.322-1.8-.322s-.417-.161-1.06-.354a13.945,13.945,0,0,0-4.307,1.8c-4.563,2.994-10.187,9.11-14.237,25.3-4.049,16.159-4.79,26.492-10.734,40.012s-4.371,19.8-6.266,22.79c-1.929,2.962-4.79,5.311-2.573,9.882,2.251,4.6,5.657,3.638,6.493,9.078.867,5.408,11.6,83.757,20.954,110.184,8.067,22.725,27.479,56.557,27.254,81.824,1.35,2.866,2.732,5.183,4.017,6.278,4.691,4.055,22.979,9.786,36.027,13.422,13.082,3.606,140.993,43.875,216.135,31.9l-16.552-76.417c-46.892,3.186-137.491,6.405-154.556-14.486Z" transform="translate(27.12 84.37)" fill-rule="evenodd" fill="url(#linear-gradient-5)"/>
          </g>
          <path id="Path_7" data-name="Path 7" d="M140.5,107.324c1.9-5.665,3.985-8.5,3.663-9.046-.386-.644-1.8-.322-1.8-.322s-7.906,2.833-10.187,9.078c-2.281,6.212,2.7,6.695,4.5,4.893a57.8,57.8,0,0,0,3.824-4.6Z" transform="translate(-76.467 -13.078)" fill-rule="evenodd" fill="url(#linear-gradient-6)"/>
          <path id="Path_8" data-name="Path 8" d="M141.923,99.5c.322-.645.451-1.064.354-1.225-.386-.644-1.8-.322-1.8-.322a22.347,22.347,0,0,0-6.17,3.638c.129,1.062,4.114-.772,5.56-1.545a4.277,4.277,0,0,1,2.056-.547Z" transform="translate(-74.581 -13.078)" fill="#f9acd1" fill-rule="evenodd"/>
          <path id="Path_9" data-name="Path 9" d="M112.061,57.213s-6.172,2.351-3.215,11.3c2.989,8.949,11.828,37.468,11.828,37.468a35.251,35.251,0,0,0-.451-12.553c-1.479-6.5-5.206-22.468-5.721-23.53a27.069,27.069,0,0,1-2.442-12.684Z" transform="translate(-92.798 -41.283)" fill-rule="evenodd" fill="url(#linear-gradient-7)"/>
          <g transform="matrix(1, 0, 0, 1, -115.55, -97.56)" filter="url(#Path_10)">
            <path id="Path_10-2" data-name="Path 10" d="M387.368,72.718s56.532.837,96.93,42.586c40.4,41.718,61.225,99.626,85.876,182.257,24.683,82.6,20.857,152.449-24.233,179.681L526.4,395.482,478.354,267.753l-62.929-81.342-57.817-67.727Z" transform="translate(195.86 75.63)" fill="#333" fill-rule="evenodd"/>
          </g>
          <path id="Path_11" data-name="Path 11" d="M349.378,204.088S330.32,232,343.142,267.342c0,0,6.043,19.57,15.813,8.046,9.769-11.491-9.577-71.3-9.577-71.3Z" transform="translate(67.197 60.594)" fill="#333" fill-rule="evenodd"/>
          <path id="Path_12" data-name="Path 12" d="M325.1,163.7l-.352,4.056s-4.95,1.641-5.24,6.437c-.256,4.8.708,9.85-1.96,12.618s-14.333,18.413-1.7,28.521c12.663,10.108,32.428,7.467,48.594,47.061,16.134,39.592,10.189,78.347,10.189,78.347l-13.82,15.354,2.12,27.459,52.291,2.961,32.973-21.7,36.35-130.754L460.731,160.83,413.1,121.238l-75.462-8.113-18.7,15.354s6.588,20.215,6.588,21.277S325.1,163.7,325.1,163.7Z" transform="translate(47.343 -2.501)" fill-rule="evenodd" fill="url(#linear-gradient-8)"/>
          <path id="Path_13" data-name="Path 13" d="M319.418,158.09a7.951,7.951,0,0,1-1.865,5.118c-2.667,2.769-14.333,18.413-1.7,28.521,3.728,2.96,8.035,4.827,12.7,6.985,7.359.837,17.548,4.281,29.053,14.647,23.172,20.859,35.289,73.038,40.4,70.269s13.593-40.268,17.419-33.669c3.856,6.6,7.23,34.088,20.632,21.309s35.707-87.3,35.707-87.3l-48.883-36.825L332.3,156.288Z" transform="translate(47.343 21.097)" fill-rule="evenodd" fill="url(#linear-gradient-9)"/>
          <path id="Path_14" data-name="Path 14" d="M325.1,163.7l-.352,4.056s-4.95,1.641-5.24,6.437c-.256,4.8.708,9.85-1.96,12.618s-14.333,18.413-1.7,28.521c.161.129.322.257.515.386,1.125.032,1.736-.29,1.286-1.126-1.607-2.962,1.285-4.056,3.921-2.447,2.667,1.609,58.364,15.644,80.668,8.4,22.337-7.244,41.685-24.69,44.641-38.725,1.318-6.148-10.509-28.937-24.265-52.694l-9.513-7.886-75.462-8.113-18.7,15.354s6.588,20.215,6.588,21.277S325.1,163.7,325.1,163.7Z" transform="translate(47.343 -2.501)" fill="#f6b1a2" fill-rule="evenodd"/>
          <path id="Path_15" data-name="Path 15" d="M338.481,150.387l-.1,8.82s2.025,5.633,5.335,7.469c3.279,1.8,72.377,16.8,76.395,14.452,4.049-2.317,16.391-39.592,17.033-42.779.611-3.186,8.9-26.2,2.539-33.637-6.363-7.469-53.349-28.553-53.349-28.553Z" transform="translate(66.974 -28.143)" fill="#1e2f4c" fill-rule="evenodd"/>
          <path id="Path_16" data-name="Path 16" d="M426.508,75.207c-5.4,12.614-18.379,40.424-31.622,49.942-12.667,9.088-13.73,9.152-31.513,10.233-5.53.337-13.107.8-23.326,1.689-38.967,3.374-49.232,20.815-49.33,20.989l-1.331,2.361c8.719,7.091,37.07,25.6,41.817,27.1,5.528,1.739,6.2,1.546,6.2,1.546a11.909,11.909,0,0,0,1.7,4.988c.932-.837,3.052-.449,3.052-.449-.771-3.638-.288-10.655.644-13.263a8.569,8.569,0,0,1,5.818-5.536c2.764-.644,4.082-3.96,4.724-5.183s-2.41-3.767-2.507-5.086c-.1-1.352-.676-2.285-2.346-4.314-1.639-2.027-1.736-7.339-1.157-8.143s7.584,3.025,11.955,5.054,11.794-1.611,11.794-1.611l7.232,1.707s22.336-6.182,30.821-10.011c8.517-3.831,23.4-58.552,22.979-64.734C431.994,80.772,429.768,78.166,426.508,75.207Z" transform="translate(32.986 -28.802)" fill="url(#linear-gradient-10)"/>
          <path id="Path_17" data-name="Path 17" d="M347.79,146.924c10.219-.891,17.8-1.352,23.326-1.689,17.783-1.081,18.847-1.145,31.513-10.233,13.243-9.518,26.226-37.328,31.622-49.942-8.455-7.674-23.889-17.736-27.877-20.825-5.528-4.249-7.232-3.091-7.232-3.091-44.641,5.536-80.251,25.333-80.251,25.333-6.492,3.413-16.166,14.067-29.535,36.438-13.4,22.339-10.959,24.143-10.959,26.17s6.492,8.627,8.2,10.848c1.7,2.254,2.861.772,2.861.772.1,2.866,6.043,5.569,6.043,5.569a1.771,1.771,0,0,0-.9,1.546,11.285,11.285,0,0,0,2.534,2.452l1.331-2.361C298.557,167.739,308.822,150.3,347.79,146.924Z" transform="translate(25.243 -38.656)" fill="url(#linear-gradient-11)"/>
          <path id="Path_18" data-name="Path 18" d="M295.5,166.276s-5.946-2.7-6.043-5.569c0,0-1.157,1.482-2.861-.772-1.7-2.22-8.2-8.82-8.2-10.848s-2.442-3.831,10.959-26.17c13.37-22.371,23.044-33.026,29.535-36.438,0,0,35.61-19.8,80.251-25.333,0,0,1.7-1.158,7.232,3.091,3.6,2.769,16.486,11.234,25.2,18.476-4.017,9.5-17.709,40.044-30.917,49.54-15.749,11.3-11.474,7.66-53.158,11.3-41.651,3.606-52,22.725-52,22.725Z" transform="translate(25.243 -38.656)" fill-rule="evenodd" fill="url(#linear-gradient-10)"/>
          <path id="Path_19" data-name="Path 19" d="M278.525,149.727a1.749,1.749,0,0,1-.129-.644c0-2.027-2.442-3.831,10.959-26.17,13.37-22.371,23.044-33.026,29.535-36.438,0,0,35.61-19.8,80.251-25.333,0,0,.964-.644,3.856.871.964,18.733-34.452,58.1-42.744,63.96s-20.086,4.151-39.66,9.464c-19.541,5.343-33.039,12.682-39.209,14.484a3.344,3.344,0,0,1-2.861-.193Z" transform="translate(25.243 -38.653)" fill="#1e2f4c" fill-rule="evenodd"/>
          <path id="Path_20" data-name="Path 20" d="M322.017,136.2s-6.524-4.829-9.61-10.236c-3.052-5.44-1.06-8.917,1.768-8.594s10,.9,17.161,4.763Z" transform="translate(47.893 0.431)" fill-rule="evenodd" fill="url(#linear-gradient-13)"/>
          <path id="Path_21" data-name="Path 21" d="M312.029,124.472l3.247,3.67s-8.131,7.178-5.335,17.9c0,0-10.125-8.627,2.088-21.567Z" transform="translate(44.511 5.37)" fill="#1e2f4c" fill-rule="evenodd"/>
          <path id="Path_22" data-name="Path 22" d="M327.72,119.378l9.8,5.215,4.757-5.15Z" transform="translate(59.577 1.836)" fill="#1e2f4c" fill-rule="evenodd"/>
          <g transform="matrix(1, 0, 0, 1, -115.55, -97.56)" filter="url(#Path_23)">
            <path id="Path_23-2" data-name="Path 23" d="M269.274,257.889s15.941,62.607,49.107,93.7c0,0-16.166,45.967-15.973,58.972,0,0-11.666,24.463,0,60.033,0,0,11.281,25.14,20.634,36.213s35.122,79.708,38.53,101.854c1.5,9.735,31.092,10.936,63.22,5.886,1.6-.252,21.175-4.295,41.065-10.025,10.434-3.006,34.781-11.39,56.376-20.079,19.9-8.006,37.424-16.433,38.285-16.86,6.813-3.413,22.72-96.989,22.72-96.989s19.893-44.388,23.975-109.283,1.414-71.041-1.06-76.063c-2.508-4.989-34.807,49.088-34.807,49.088l-22.979-86.46L507.133,254.7,441.024,273.21s-46.57,11.073-47.181,6.5c-.642-4.571,10.638-25.777,10.638-31.969,0-4.8-12.565-2.185-15.747-7.11-3.181-4.893-21.919,14.9-29.568,11.523-7.648-3.411-38.469-8.111-89.891,5.731Z" transform="translate(134.58 182.96)" fill-rule="evenodd" fill="url(#linear-gradient-14)"/>
          </g>
          <g transform="matrix(1, 0, 0, 1, -115.55, -97.56)" filter="url(#Path_24)">
            <path id="Path_24-2" data-name="Path 24" d="M436.483,162.577s-27.608,100.72-32.3,104.97-21.245,25.559-17.87,43.874c3.406,18.317-8.9,65.571-32.718,76.644s-38.278,89,14.43,120.517c52.74,31.513,38.7,37.468,38.7,37.468s57.4-45.581,72.7-102.621c15.331-57.07,1.06-70.687.644-92C479.645,330.155,504.3,258.6,504.3,258.6l-4.661-24.27L449.466,161.1Z" transform="translate(178.17 136.93)" fill="#333" fill-rule="evenodd"/>
          </g>
          <path id="Path_25" data-name="Path 25" d="M329.268,124.007a9.785,9.785,0,0,1,6.266,3.089c2.347,2.833,2.347,5.536,1.511,5.054-.867-.483-6.878-3.121-8.131-5.44-1.285-2.285-.545-2.864.354-2.7Z" transform="translate(59.925 5.03)" fill-rule="evenodd" fill="url(#linear-gradient-15)"/>
          <path id="Path_26" data-name="Path 26" d="M326.353,127.627c.1-.064,2.925,2.864,2.315,3.572-.579.71-2.315-2.22-2.476-2.542-.129-.29-.352-1,.161-1.03Z" transform="translate(58.405 7.558)" fill-rule="evenodd" fill="url(#linear-gradient-16)"/>
          <path id="Path_27" data-name="Path 27" d="M375.243,191.731c-11.249,8.722-48.658-12.137-56.113.225-1.833,3.025-.837,5.858,1.734,8.433,14.56,3.928,56.982,12.941,75.751,6.825,18.256-5.892,34.486-18.638,41.46-30.741-2.186-2.93-4.307-5.6-6.3-8.145-13.659-17.028-23.3-25.559-29.213-30.452-9-1.77-18.511-3.765-26.449-5.536-3.858,6.117,7.423,18.51,12.116,23.21.931.9,1.414,2.542,1.509,4.635.451,8.5-5.431,24.527-14.494,31.546Z" transform="translate(52.967 10.827)" fill-rule="evenodd" fill="url(#linear-gradient-17)"/>
          <path id="Path_28" data-name="Path 28" d="M352.657,155.846c.193-2.735-2.249-3.38-7.97-10.075-5.753-6.695-9.417-12.585-15.073-11.62-5.625.965-8.26,7.564-8.26,7.564l-.256,7.469-.354,4.056s-4.918,1.641-5.206,6.405c.32.418.9.579,1.927-.032,2.861-1.643,8.646-2.769,14.945-.74,6.268,2.027,20.022-.322,20.247-3.027Z" transform="translate(51.127 12.011)" fill-rule="evenodd" fill="url(#linear-gradient-18)"/>
          <path id="Path_29" data-name="Path 29" d="M322.065,147.867s1.126-7.339,7.167-7.467c6.075-.1,9,5.5,11.056,6.92,2.088,1.45,6.331,4.571,4.917,4.732a41.088,41.088,0,0,1-13.659-2.606,21.767,21.767,0,0,0-9.481-1.578Z" transform="translate(55.654 16.417)" fill="#fefefe" fill-rule="evenodd"/>
          <path id="Path_30" data-name="Path 30" d="M340.079,146.765a4.724,4.724,0,0,1,.418.322,21.63,21.63,0,0,0-.1,2.7,43.883,43.883,0,0,1-11.313-2.542,27.384,27.384,0,0,0-3.309-1.03c-.257-1.031-.322-2.158.577-2.19,1.7-.129,2.122-.933,3.408-.064,1.285.837,3.792.1,4.724.837.965.772,4.275,3.155,5.592,1.965Z" transform="translate(58.113 18.614)" fill="#1e2f4c" fill-rule="evenodd"/>
          <path id="Path_31" data-name="Path 31" d="M322.585,162.861a11.921,11.921,0,0,1-1.7-4.989s-9.063-2.64-7.489-12.426c1.607-9.786,7.007-11.2,7.007-11.2l9.32-14.067,1.094.71c-.579.8-.483,6.116,1.157,8.143,1.67,2.029,2.249,2.962,2.346,4.314.1,1.319,3.15,3.863,2.507,5.086s-1.96,4.539-4.724,5.183a8.572,8.572,0,0,0-5.818,5.536c-.931,2.608-1.414,9.625-.644,13.263,0,0-2.12-.388-3.052.451Z" transform="translate(49.511 2.39)" fill="#1e2f4c" fill-rule="evenodd"/>
          <path id="Path_32" data-name="Path 32" d="M432.619,101.221s-1.06-10.333-4.563-12.877-15.427-8.4-16.167-9.464-8.934-7.886-16.166-12.038-18.9-8.241-18.9-8.241a6.233,6.233,0,0,0-2.764,1.965,7.374,7.374,0,0,0-1.285,6.373,6.987,6.987,0,0,0,1.157,7.5c3.15,3.8,19.026,14,15.009,26.558-4.049,12.585-12.663,23.658-13.949,29.84-1.253,6.148-1.253,15.419-1.253,15.419s-5.848,2.993-7.552,5.633c-1.7,2.671-3.408,5.215-6.075,5.022-2.635-.225-10.831.579-13.434-.8s-9.674-1.8-12.824,2.285c-3.116,4.088-3.245,6.083-2.217,9.432,1,3.348,7.2,1.705,9.61,2.512,2.41.772,4.082,3.347,12.5,4.28,8.389.967,29.793,3.928,33.906,8.949,4.082,5.022,23.269,14.389,59.394,69.305,36.156,54.948,52.323,67.92,48.048,76.869-4.243,8.949-12.76,59.841-2.957,86.238,9.771,26.4,38.246,62.609,38.246,62.609s26.8-32.382,33.585-70.271c0,0,21.277-99.66,3.408-125.186-17.837-25.559-35.063-47.706-71.221-72.394-36.125-24.722-71.832-59-72.474-61.774s5.721-7.339,7.648-12.135c1.9-4.764,10.511-15.1,10.638-18.188.1-3.089,1.255-5.022-1.7-8.724-2.989-3.733-7.457-6.92-7.65-8.69Z" transform="translate(61.894 -40.321)" fill="#f6b1a2" fill-rule="evenodd"/>
          <g id="Group_1" data-name="Group 1" transform="translate(394.779 127.262)">
            <path id="Path_33" data-name="Path 33" d="M332.138,124.824c2.2,1.02,5.977.329,7.98.757-.952-1.02-2.693-2.664-4.039-2.632-1.577.034-3.448.757-3.941,1.875Z" transform="translate(-332.138 -122.949)" fill-rule="evenodd" fill="url(#linear-gradient-19)"/>
          </g>
          <path id="Path_34" data-name="Path 34" d="M413.521,101.1s-1.06-10.333-4.563-12.877-15.427-8.4-16.167-9.464-8.934-7.886-16.166-12.038c-6.009-3.477-15.17-6.89-18.03-7.952.1.676.676,1.611,2.828,2.512,4.017,1.641,19.766,7.918,22.466,11.91,2.732,3.992,1.7,3.187-2.6,1.545s-13.37-6.437-13.756-6.92a9.622,9.622,0,0,0-4.21-1.931,6.871,6.871,0,0,1-3.408-1.385c-.61-.579-1.67-.547-.932.193,0,0,3.086,2.158,4.661,2.447,1.607.257,3.052,2.606,3.985,4.249.964,1.641,14.719,10.912,14.719,19.314s-6.363,24.173-4.756,28.519c1.573,4.378,5.945,7.887,5.945,13.327s2.219,5.118,5.625,6.277,3.5,1.932,4.243,7.662c.771,5.762,110.238,121.034,115.348,128.726,5.078,7.662,2.346,9.367,1.7,15.517-.644,6.18-1.191,11.395-4.6,14.387-3.375,2.994-.193,138.514-4.242,132.559-4.049-5.987-8.934-18.96-14.013-19.185-4.917-.193-14.687-2.833-16.616-9.625a53.837,53.837,0,0,0,2.058,6.986c9.771,26.4,38.246,62.609,38.246,62.609s26.8-32.382,33.585-70.271c0,0,21.277-99.66,3.408-125.187-17.837-25.559-35.063-47.706-71.221-72.394-36.125-24.722-71.832-59-72.474-61.774s5.721-7.339,7.648-12.135c1.9-4.764,10.511-15.1,10.638-18.188.1-3.089,1.255-5.022-1.7-8.724-2.989-3.733-7.457-6.92-7.65-8.69ZM470.73,407.743l.032.193c-.032-.225-.032-.29-.032-.193Z" transform="translate(80.992 -40.202)" fill-rule="evenodd" fill="url(#linear-gradient-20)"/>
          <path id="Path_35" data-name="Path 35" d="M387.376,75.455h-.032l-.1-.032c-2.732-1.512-5.56-3.025-7.361-4.087,1.543,4.505,4.21,12.2,5.045,13.551,1.223,2,3.568,8.6,5.144,7.662,1.606-.9.224-13.07-.676-14.518-.9-1.416-.257-1.545-2.024-2.576Z" transform="translate(95.761 -31.487)" fill-rule="evenodd" fill="url(#linear-gradient-21)"/>
          <path id="Path_36" data-name="Path 36" d="M368.558,66.825a33.28,33.28,0,0,1-4.082-2.317A5.226,5.226,0,0,0,363,63.543a49.427,49.427,0,0,1,4.468,4.829c.867,1.287,5.753,3.767,6.974,4.539,1.221.74,3.76,4.41,4.466,5.536.676,1.094,6.59,9.528,9.513,11.813s6.942,7.823,6.942,11.556c0,3.7,2.668,4.571,2.154.356-.547-4.217-2.41-7.919-3.792-9.142s-7.65-9.657-8.807-13.166c-1.189-3.509-2.41-5.472-4.917-6.18-1.929-.515-7.972-4.121-11.442-6.858Z" transform="translate(84.046 -36.893)" fill-rule="evenodd" fill="url(#linear-gradient-22)"/>
          <path id="Path_37" data-name="Path 37" d="M382.126,114.67c21.631,26.138,105.835,115.047,110.3,121.774,4.788,7.211,2.635,9.142,1.831,14.518.161-1.062,5.272-9.689,6.751-19.248s-4.918-9.367-13.82-29.583c-8.936-20.215-47.213-32.577-67.2-52.374-12.084-12.006-27.543-25.945-37.861-35.087Z" transform="translate(97.314 -1.429)" fill-rule="evenodd" fill="url(#linear-gradient-23)"/>
          <path id="Path_38" data-name="Path 38" d="M391.064,84.963s3.665,4.282,3.7,4.635c.064.386-1.736,2.93-2.315,5.279-.61,2.349-1.189,5.73-1.286,2.833-.1-2.93-.1-12.748-.1-12.748Z" transform="translate(103.514 -22.035)" fill-rule="evenodd" fill="url(#linear-gradient-24)"/>
        </g>
      </g>
    </g>
    <g transform="matrix(1, 0, 0, 1, 1008.5, 82)" filter="url(#Ellipse_4)">
      <circle id="Ellipse_4-2" data-name="Ellipse 4" cx="48" cy="48" r="48" transform="translate(148.5 653)" fill="#fff" opacity="0.7"/>
    </g>
    <g transform="matrix(1, 0, 0, 1, 1008.5, 82)" filter="url(#Ellipse_5)">
      <ellipse id="Ellipse_5-2" data-name="Ellipse 5" cx="30" cy="29.5" rx="30" ry="29.5" transform="translate(698.5 811)" fill="#fff" opacity="0.7"/>
    </g>
    <g transform="matrix(1, 0, 0, 1, 1008.5, 82)" filter="url(#Ellipse_7)">
      <circle id="Ellipse_7-2" data-name="Ellipse 7" cx="46.5" cy="46.5" r="46.5" transform="translate(160.5 205)" fill="#fff" opacity="0.8"/>
    </g>
    <g transform="matrix(1, 0, 0, 1, 1008.5, 82)" filter="url(#Ellipse_8)">
      <circle id="Ellipse_8-2" data-name="Ellipse 8" cx="48" cy="48" r="48" transform="translate(773.5 286)" fill="#fff" opacity="0.7"/>
    </g>
    <g transform="matrix(1, 0, 0, 1, 1008.5, 82)" filter="url(#Ellipse_9)">
      <ellipse id="Ellipse_9-2" data-name="Ellipse 9" cx="29" cy="29.5" rx="29" ry="29.5" transform="translate(670.5 87)" fill="#fff" opacity="0.7"/>
    </g>
    <g id="Polygon_1" data-name="Polygon 1" transform="translate(1767 790)" fill="none" opacity="0.8">
      <path d="M16.363,11.182a7,7,0,0,1,12.273,0L39.31,30.632A7,7,0,0,1,33.174,41H11.826A7,7,0,0,1,5.69,30.632Z" stroke="none"/>
      <path d="M 22.5 14.55004501342773 L 11.82624816894531 33.99999618530273 L 33.17373657226563 34.00000762939453 L 22.53217506408691 14.5538215637207 C 22.52899932861328 14.55276870727539 22.51704978942871 14.55005645751953 22.5 14.55005645751953 L 22.5 14.55004501342773 M 22.49999809265137 7.550056457519531 C 24.90388488769531 7.550056457519531 27.30776786804199 8.760826110839844 28.63666343688965 11.18236923217773 L 39.3104133605957 30.63232040405273 C 41.87034225463867 35.29706192016602 38.49452972412109 40.99999618530273 33.17376708984375 40.99999618530273 C 33.17344284057617 40.99999618530273 33.17407608032227 40.99999618530273 33.17375183105469 40.99999618530273 L 11.82624816894531 40.99999618530273 C 6.504924774169922 41.00000762939453 3.129501342773438 35.29734420776367 5.689586639404297 30.63232040405273 L 16.36332511901855 11.18236923217773 C 17.69222450256348 8.760826110839844 20.09611320495605 7.550056457519531 22.49999809265137 7.550056457519531 Z" stroke="none" fill="#7edfca"/>
    </g>
    <g id="Ellipse_11" data-name="Ellipse 11" transform="translate(1304 185)" fill="none" stroke="#ffcece" stroke-width="6">
      <circle cx="34" cy="34" r="34" stroke="none"/>
      <circle cx="34" cy="34" r="31" fill="none"/>
    </g>
    <g id="Ellipse_12" data-name="Ellipse 12" transform="translate(1741 285)" fill="none" stroke="#b89ae4" stroke-width="6">
      <circle cx="15" cy="15" r="15" stroke="none"/>
      <circle cx="15" cy="15" r="12" fill="none"/>
    </g>
    <g id="Group_13" data-name="Group 13">
      <path id="Path_47" data-name="Path 47" d="M19.25,0,1.354,14.88" transform="translate(1213.419 241.605)" fill="none" stroke="#f4aa2e" stroke-linecap="round" stroke-width="6"/>
      <path id="Path_46" data-name="Path 46" d="M-1.182-1.317l16.014,17.13" transform="translate(1216.922 241.707)" fill="none" stroke="#f4aa2e" stroke-linecap="round" stroke-width="6"/>
    </g>
    <g id="Group_16" data-name="Group 16" transform="translate(828.057 270.911)" opacity="0.8">
      <g id="Group_15" data-name="Group 15">
        <path id="Path_50" data-name="Path 50" d="M366.452,519.528c.042-.038.083-.069.126-.1.027-.022.055-.042.084-.062a13.744,13.744,0,0,1,10.119-4.189v-.007c.054,0,.108.005.163,0s.107,0,.163,0v.007a13.745,13.745,0,0,1,10.118,4.189c.028.02.056.04.084.062.043.034.084.065.126.1a1.729,1.729,0,0,1,.43,2.477l-1.887,1.906a2.015,2.015,0,0,1-2.665-.221c-.022-.019-.041-.042-.064-.061l0,.006c-.022-.026-.044-.049-.067-.075-.071-.085-.145-.173-.223-.253a7.7,7.7,0,0,0-5.848-2.454v.016c-.044,0-.085-.014-.128-.016h-.069c-.045,0-.086.012-.129.016v-.016a7.7,7.7,0,0,0-5.85,2.454c-.076.08-.15.168-.225.253-.019.026-.041.049-.064.075l0-.006c-.025.019-.043.042-.064.061a2.017,2.017,0,0,1-2.666.221l-1.885-1.906A1.727,1.727,0,0,1,366.452,519.528Z" fill="url(#linear-gradient-10)"/>
        <path id="Path_51" data-name="Path 51" d="M348.558,498.239a2.32,2.32,0,0,1,.179-.179,2.234,2.234,0,0,1,.251-.186,43.435,43.435,0,0,1,55.911,0,2.065,2.065,0,0,1,.251.186,2.514,2.514,0,0,1,.179.179,1.8,1.8,0,0,1,.034,2.518l-2.257,2.274a2.109,2.109,0,0,1-2.6.2l0,.006-.049-.041a2.466,2.466,0,0,1-.227-.172,1.915,1.915,0,0,1-.268-.282,32.847,32.847,0,0,0-22.851-8.259v0c-.055,0-.108,0-.163,0s-.109,0-.163,0v0a32.846,32.846,0,0,0-22.852,8.259,2.088,2.088,0,0,1-.268.282,2.337,2.337,0,0,1-.227.172l-.05.041-.005-.006a2.109,2.109,0,0,1-2.6-.2l-2.255-2.274A1.8,1.8,0,0,1,348.558,498.239Z" fill="url(#linear-gradient-10)"/>
        <path id="Path_52" data-name="Path 52" d="M358.328,509.122a3.037,3.037,0,0,1,.266-.2,26.093,26.093,0,0,1,18.187-7.157v0l.163,0,.163,0v0a26.085,26.085,0,0,1,18.184,7.157,2.806,2.806,0,0,1,.269.2c.033.033.066.066.1.1a1.76,1.76,0,0,1,.2,2.508l-2.1,2.125a2.043,2.043,0,0,1-2.614.049c-.061-.046-.122-.091-.18-.139a2.309,2.309,0,0,1-.387-.442,20.4,20.4,0,0,0-27.262,0,2.328,2.328,0,0,1-.39.442c-.056.048-.117.093-.179.139a2.043,2.043,0,0,1-2.614-.049l-2.1-2.125a1.761,1.761,0,0,1,.2-2.508C358.26,509.188,358.293,509.155,358.328,509.122Z" fill="url(#linear-gradient-10)"/>
        <path id="Path_53" data-name="Path 53" d="M376.944,527.326a4.593,4.593,0,1,1-4.661,4.591A4.626,4.626,0,0,1,376.944,527.326Z" fill="url(#linear-gradient-10)"/>
      </g>
    </g>
    <g id="Group_18" data-name="Group 18" transform="translate(1316.799 -11.265)">
      <path id="Path_55" data-name="Path 55" d="M529.559,423.993a13.086,13.086,0,0,0-24.5-6.4,10.473,10.473,0,0,0-1.673-.14,9.815,9.815,0,0,0-9.4,6.971,9.813,9.813,0,0,0,2.885,19.2h32.651a9.815,9.815,0,1,0,.033-19.63ZM513.2,440.352l-9.814-13.087h6.543V417.45h6.543v9.815h6.543Z" fill="#fa9f87"/>
    </g>
    <g id="Group_21" data-name="Group 21" transform="translate(681.739 -274.41)" opacity="0.9">
      <g id="Group_20" data-name="Group 20">
        <path id="Path_57" data-name="Path 57" d="M545.7,615.508a7.558,7.558,0,0,0-4.62,1.576l-13.218-7.93a7.014,7.014,0,0,0,0-2.486l13.218-7.932a7.592,7.592,0,1,0-2.976-6.021,7.62,7.62,0,0,0,.11,1.244l-13.219,7.93a7.6,7.6,0,1,0,0,12.043l13.219,7.929a7.593,7.593,0,1,0,7.486-6.353Z" fill="#7478bc"/>
      </g>
    </g>
    <g id="Group_23" data-name="Group 23" transform="translate(1619.77 449.427)">
      <path id="Path_59" data-name="Path 59" d="M110.848,486.718s.193.487,1.12.133l2.535-.674a1.689,1.689,0,0,1,1.515.462s1.089.73,1.009,1.333l-.707,3.524a.8.8,0,0,0,.46.979l2.836,1.061s.789.075,1-.562l1.235-2.222a1.715,1.715,0,0,1,1.732-.906s1.336-.117,1.8.589l1.619,2.655s.292.675,1.162.274l2.514-1.056s.7-.456.489-1.076l-.785-2.684a1.416,1.416,0,0,1,.384-1.527s.782-1.27,1.864-1.014l3.007.7s.622.27,1.165-.6l.968-2.376a.977.977,0,0,0-.547-1.225l-2.488-1.421s-.694-.311-.654-1.552c0,0-.189-1.394.7-1.874l2.442-1.47a.892.892,0,0,0,.459-1.185l-1.038-2.314a1.05,1.05,0,0,0-1.327-.613l-2.837.89a2.439,2.439,0,0,1-1.585-.664s-1.011-.96-.7-1.781l.655-2.787s.168-.816-.458-1.113l-2.935-1.1s-.632-.038-.827.441l-1.649,2.906a2.357,2.357,0,0,1-1.833.424,3.507,3.507,0,0,1-1.365-.366s-1.67-2.776-1.75-2.92a.758.758,0,0,0-.957-.379l-2.688,1.113s-.541.332-.406.81l.955,3.536a2.642,2.642,0,0,1-.823,1.339s-1.1.8-1.624.7l-2.933-.7a.953.953,0,0,0-1.183.427l-1.1,2.663a.737.737,0,0,0,.37.892l2.882,1.626s.917.415.649,2a2.048,2.048,0,0,1-1.112,1.8c-1.167.633-2.17,1.268-2.17,1.268a.752.752,0,0,0-.366.987C109.81,484.778,110.848,486.718,110.848,486.718Zm7.6-5.047a5.476,5.476,0,0,1,2.948-7.227,5.62,5.62,0,0,1,7.336,2.9,5.48,5.48,0,0,1-2.947,7.228A5.622,5.622,0,0,1,118.448,481.671Z" transform="translate(-6.303 -6.463)" opacity="0.7" fill="url(#linear-gradient-29)"/>
    </g>
    <g id="Group_25" data-name="Group 25" transform="translate(1503.841 -194.443)">
      <path id="Path_60" data-name="Path 60" d="M231.227,394.52h-24.79a2.152,2.152,0,0,0-2.167,2.133v16.6a2.151,2.151,0,0,0,2.167,2.132h9.712V417.4h-8.678a1.185,1.185,0,0,0,0,2.37h23.051a1.185,1.185,0,0,0,0-2.37h-7.9v-2.014h8.607a2.148,2.148,0,0,0,2.164-2.132v-16.6A2.148,2.148,0,0,0,231.227,394.52Zm-.447,15.972a1.891,1.891,0,0,1-1.886,1.886H208.768a1.891,1.891,0,0,1-1.886-1.886V399.419a1.892,1.892,0,0,1,1.886-1.886h20.127a1.892,1.892,0,0,1,1.886,1.886Z" transform="translate(-14.413 -13.991)" fill="#80c390"/>
    </g>
  </g>
</svg>
