<svg xmlns="http://www.w3.org/2000/svg" width="121.112" height="121.112" viewBox="0 0 121.112 121.112">
    <defs>
        <style>
            .cls-1{fill:#f28e73;stroke:#f28e73}
        </style>
    </defs>
    <g id="lamp" transform="translate(.5 .5)">
        <g id="Group_34" transform="translate(25.023 25.023)">
            <path id="Path_69" d="M47.54 100.089H32.526c-3.5 0-7.507-3-7.507-9.008v-10.51c0-5-2.5-9.509-6.506-13.012A34.6 34.6 0 0 1 5 39.532 35.616 35.616 0 0 1 39.532 5a35.173 35.173 0 0 1 25.024 10.009 35.629 35.629 0 0 1 10.51 25.023 33.658 33.658 0 0 1-13.013 27.026 18.273 18.273 0 0 0-7.007 14.013v11.511a7.7 7.7 0 0 1-7.507 7.507zM40.033 10C24.018 10 10.505 23.517 10 39.532c0 9.509 4 18.517 11.511 24.022 5.505 4.5 8.508 10.51 8.508 17.016v10.51c0 1 0 4 2.5 4H47.54a2.364 2.364 0 0 0 2.5-2.5V81.071c0-6.506 3.5-13.513 9.008-18.017a29.183 29.183 0 0 0 11.01-23.021 29.916 29.916 0 0 0-9.008-21.52A29.5 29.5 0 0 0 40.033 10z" class="cls-1" transform="translate(-5 -5)"/>
        </g>
        <g id="Group_35" transform="translate(45.042 100.093)">
            <path id="Path_70" d="M36.526 25H11.5A2.364 2.364 0 0 1 9 22.5a2.364 2.364 0 0 1 2.5-2.5h25.026a2.364 2.364 0 0 1 2.5 2.5 2.364 2.364 0 0 1-2.5 2.5z" class="cls-1" transform="translate(-9 -20)"/>
        </g>
        <g id="Group_36" transform="translate(57.554)">
            <path id="Path_71" d="M14 15.014a2.364 2.364 0 0 1-2.5-2.5V2.5A2.364 2.364 0 0 1 14 0a2.364 2.364 0 0 1 2.5 2.5v10.012a2.364 2.364 0 0 1-2.5 2.502z" class="cls-1" transform="translate(-11.5)"/>
        </g>
        <g id="Group_37" transform="translate(90.835 17.266)">
            <path id="Path_72" d="M20.9 15.211a3.009 3.009 0 0 1-2-.5 2.419 2.419 0 0 1 0-3.5L25.907 4.2a2.419 2.419 0 0 1 3.5 0 2.419 2.419 0 0 1 0 3.5L22.4 14.711a5.041 5.041 0 0 1-1.5.5z" class="cls-1" transform="translate(-18.15 -3.45)"/>
        </g>
        <g id="Group_38" transform="translate(105.098 57.554)">
            <path id="Path_73" d="M33.512 16.5H23.5A2.364 2.364 0 0 1 21 14a2.364 2.364 0 0 1 2.5-2.5h10.012a2.364 2.364 0 0 1 2.5 2.5 2.364 2.364 0 0 1-2.5 2.5z" class="cls-1" transform="translate(-21 -11.5)"/>
        </g>
        <g id="Group_39" transform="translate(90.835 91.335)">
            <path id="Path_74" d="M27.909 30.011a3.009 3.009 0 0 1-2-.5L18.9 22.5a2.477 2.477 0 1 1 3.5-3.5l7.007 7.007a2.419 2.419 0 0 1 0 3.5c0 .5-.5.5-1.5.5z" class="cls-1" transform="translate(-18.15 -18.25)"/>
        </g>
        <g id="Group_40" transform="translate(16.766 91.335)">
            <path id="Path_75" d="M6.1 30.011a3.009 3.009 0 0 1-2-.5 2.419 2.419 0 0 1 0-3.5L11.107 19a2.477 2.477 0 1 1 3.5 3.5L7.6 29.511a1.839 1.839 0 0 1-1.5.5z" class="cls-1" transform="translate(-3.35 -18.25)"/>
        </g>
        <g id="Group_41" transform="translate(0 57.554)">
            <path id="Path_76" d="M12.512 16.5H2.5A2.364 2.364 0 0 1 0 14a2.364 2.364 0 0 1 2.5-2.5h10.012a2.364 2.364 0 0 1 2.5 2.5 2.364 2.364 0 0 1-2.5 2.5z" class="cls-1" transform="translate(0 -11.5)"/>
        </g>
        <g id="Group_42" transform="translate(16.766 16.766)">
            <path id="Path_77" d="M13.109 15.611a3.009 3.009 0 0 1-2-.5L4.1 7.6a2.419 2.419 0 0 1 0-3.5 2.419 2.419 0 0 1 3.5 0l7.007 7.007a2.419 2.419 0 0 1 0 3.5c-.5.5-1 1-1.5 1z" class="cls-1" transform="translate(-3.35 -3.35)"/>
        </g>
        <g id="Group_43" transform="translate(57.554 37.535)">
            <path id="Path_78" d="M34.021 32.523a2.364 2.364 0 0 1-2.5-2.5A17.732 17.732 0 0 0 14 12.5a2.364 2.364 0 0 1-2.5-2.5A2.364 2.364 0 0 1 14 7.5a22.427 22.427 0 0 1 22.523 22.521 2.364 2.364 0 0 1-2.502 2.502z" class="cls-1" transform="translate(-11.5 -7.5)"/>
        </g>
    </g>
</svg>
