<svg id="Layer_1" data-name="Layer 1" xmlns="http://www.w3.org/2000/svg" xmlns:xlink="http://www.w3.org/1999/xlink" viewBox="0 0 964.34 411.27"><defs><style>.cls-1{fill:url(#linear-gradient);}.cls-2{fill:url(#linear-gradient-2);}.cls-3{fill:url(#linear-gradient-3);}.cls-4{fill:url(#linear-gradient-4);}.cls-5{fill:url(#linear-gradient-5);}</style><linearGradient id="linear-gradient" x1="14.85" y1="549.44" x2="1488.94" y2="664.6" gradientUnits="userSpaceOnUse"><stop offset="0" stop-color="#5179bc"/><stop offset="0.01" stop-color="#5179bc"/><stop offset="0.54" stop-color="#52bbeb"/><stop offset="1" stop-color="#5bc1a1"/></linearGradient><linearGradient id="linear-gradient-2" x1="15.25" y1="544.34" x2="1489.33" y2="659.51" xlink:href="#linear-gradient"/><linearGradient id="linear-gradient-3" x1="17.42" y1="516.62" x2="1491.5" y2="631.79" xlink:href="#linear-gradient"/><linearGradient id="linear-gradient-4" x1="31.51" y1="336.22" x2="1505.59" y2="451.38" xlink:href="#linear-gradient"/><linearGradient id="linear-gradient-5" x1="14.79" y1="550.21" x2="1488.88" y2="665.37" xlink:href="#linear-gradient"/></defs><title>IWD&amp;apos;21 logo </title><path class="cls-1" d="M94.91,741.65H89.09q-9.2,0-12-2.76t-5.21-13.48a4.81,4.81,0,0,0-1.84-2.91,17.76,17.76,0,0,0-2.76-1.38,10.71,10.71,0,0,1-1.53-.62q-8-4-8-11.64a25.41,25.41,0,0,1,1.22-7.36,19.75,19.75,0,0,1,3.68-9q2.76-3.51,9.2-4.13a84.86,84.86,0,0,0,12.56-1.54q4.91-.91,9.81-1.53,13.78-.62,15.32-15,8.58-51.16,17.77-101.74,3.06-15.93,5.83-31.87,5.82-32.47,12.26-65a28.9,28.9,0,0,0,.3-4q0-5.22-7.35-6.13c-4.91-.62-8.23-1.48-10-2.61s-2.61-3.22-2.61-6.28a65,65,0,0,1,.62-8,14.48,14.48,0,0,0,.3-2.76q0-6.12-6.43-5.51H118.2c-2.86,0-5-.92-6.28-2.76a27.25,27.25,0,0,1-3.22-5.82,2.31,2.31,0,0,0-.31-.92,20.66,20.66,0,0,1-1.22-7.05A23,23,0,0,1,112.84,405a24.69,24.69,0,0,1,14.25-8.74q21.15-4.29,42-8.58,17.48-3.68,34.63-7.35a5.69,5.69,0,0,1,1.84-.31,28.13,28.13,0,0,1,8.89-1.53,13.19,13.19,0,0,1,6.43,1.68,17.3,17.3,0,0,1,5.83,6,6.46,6.46,0,0,0,5.51,3.06,15,15,0,0,0,5.52-1.22c1.23-.2,2.35-.41,3.37-.62a81.88,81.88,0,0,1,15.63-2.14q8.58,0,8,7.66,0,5.52-2.45,16.24a33.66,33.66,0,0,1-1.84,6.74,11.07,11.07,0,0,1-4.6,5.21,55.32,55.32,0,0,0-19.61,18.7,10.54,10.54,0,0,1-5.52,4.14,32,32,0,0,1-7,1.37,42.07,42.07,0,0,0-5.21.92,65.26,65.26,0,0,0-11.64,3.07,8.35,8.35,0,0,0-4.91,4.75,61.8,61.8,0,0,0-2.45,10.26,10.35,10.35,0,0,1-.3,2.46q-8.28,51.48-17.17,103l-8.58,51.48q-1.53,8.28-3.06,16.86-2.76,13.78-5.21,27.58a46.51,46.51,0,0,0-.92,8.27q0,6.44,3.83,8.74T180.72,685h7.66a22.83,22.83,0,0,1,3.68-.3,11.84,11.84,0,0,1,5.05,1.07,10,10,0,0,1,4.14,4.14,7.69,7.69,0,0,1,.92,4q0,5.22-3.22,12.41a54.72,54.72,0,0,1-6.59,11.5q-8.88,11-20.53,14.55a86.38,86.38,0,0,1-25.13,3.53,324.66,324.66,0,0,0-38.61,4Q101,740.72,94.91,741.65Zm32.48-63.44q3.37-16.55,6.75-32.79,19.92-91.62,31.26-184.79A2180.74,2180.74,0,0,0,127.39,678.21Z" transform="translate(-57.83 -334.37)"/><path class="cls-2" d="M292,599.15a46.15,46.15,0,0,0,10.42-14.71,3.84,3.84,0,0,1,.92-1.54q15.33-30.33,30.95-60.67,15.33-30,30.65-60.38a75.17,75.17,0,0,1,16.24-23.59,26.39,26.39,0,0,1,6.74,7.66,49.61,49.61,0,0,1,4,8.88,37.85,37.85,0,0,0,2.45,6.13,34.57,34.57,0,0,1,17.77-12.56l1.23-.61a16.79,16.79,0,0,1,7.05-2.15q5.52,0,6.43,10.11l.62,4.91a113.45,113.45,0,0,1,.61,11.64,120.67,120.67,0,0,1-1.23,17.16c-.2,3.68-.41,7.46-.61,11.34q-3.37,42.91-10.11,84.89-3.37,21.15-6.13,42.6a7,7,0,0,1-.31,2.15,8.79,8.79,0,0,0-.92,4v.92a9.17,9.17,0,0,0,2.46,4.9,53.53,53.53,0,0,0,8.58-14.71c.61-1.43,1.22-2.76,1.83-4a798,798,0,0,0,37.09-92.25,636.93,636.93,0,0,1,39.84-92.55q4.89-12.25,11.33-12.25,4.9,0,12.88,8,3.67,3.07,6.43,3.07a7.79,7.79,0,0,0,4.6-1.53,13.52,13.52,0,0,0,2.45-1.23,23.88,23.88,0,0,1,8-1.84q5.21,0,5.82,5.82v.62a11.56,11.56,0,0,1,.31,2.75,21.21,21.21,0,0,1-.31,3.38l-.31,3.06a44.59,44.59,0,0,1-4,18.39,755.68,755.68,0,0,0-41.07,97.45q-7,19.3-14.09,38-11,29.43-24.21,57.31A264.37,264.37,0,0,1,404.43,738q-8,7.66-15,7.66-9.51,0-18.08-15a32.84,32.84,0,0,0-6.13-8.58,53.87,53.87,0,0,1-12.57-17.63,64.2,64.2,0,0,1-4.9-19.76q-.32-3.67-.31-7.36v-4q1.23-18.07,3.07-35.86l1.22-15.63h-.92c-2,0-3.47.52-4.29,1.54A7.39,7.39,0,0,0,345,627a19.57,19.57,0,0,1-1.23,2.15,463.08,463.08,0,0,1-82.74,106,5.61,5.61,0,0,0-1.53,1.54,32.26,32.26,0,0,1-4.91,4,12.06,12.06,0,0,1-6.43,2.15q-5.82,0-10.42-5.83a12.37,12.37,0,0,1-1.53-4.9v-6.74a6.94,6.94,0,0,0-2.45-4.6,13.67,13.67,0,0,0-4.6-2.14,24.62,24.62,0,0,1-4.29-1.69,11.58,11.58,0,0,1-4-3.52,26.72,26.72,0,0,1-5.21-12.88v-2.75a50.33,50.33,0,0,1,.62-7.67q8.89-66.2,21.14-131.47,4.6-25.74,8.58-51.48,8.58-52.09,19.62-103l.92-4.29a31.45,31.45,0,0,1,2.45-9,13.64,13.64,0,0,1,6.74-6.59,8.75,8.75,0,0,1,4.44,3.52,29.23,29.23,0,0,1,2.3,4.75,14.48,14.48,0,0,0,3.07,6.13,8,8,0,0,1,2.45,4.6v.92a7,7,0,0,1-1.53,4.6,45.69,45.69,0,0,0-8.89,17.46,122.29,122.29,0,0,0-3.37,19.31q-.62,6.43-1.53,12.57-12.57,71.1-24.52,142.19-4.9,27.58-9.5,54.86a9.18,9.18,0,0,1-.61,3.37,16.33,16.33,0,0,0-.92,5.21V665a14.92,14.92,0,0,0,1.53,4.91,11.49,11.49,0,0,0,6.13-5.82,19.81,19.81,0,0,0,1.53-7.67l.61-3.67q19-108.49,38.62-217l1.53-5.51a52.42,52.42,0,0,0,1.84-11q0-11.34,6.28-16.71a54.73,54.73,0,0,1,14.25-8.73q2.15-1.21,4-2.15a7.69,7.69,0,0,1,3.38-.92c3.26,0,5.31,2.56,6.12,7.67l.31,1.83a138.23,138.23,0,0,1-3.06,28.81q-12.27,66.19-24.52,132.7-2.46,14.4-5.21,28.5a.9.9,0,0,1-.31.61v4A12.3,12.3,0,0,0,292,599.15Zm50-41.07a65.08,65.08,0,0,0-15.63,32.18q2.44-4.29,4.9-8.28A49.11,49.11,0,0,0,341.92,558.08Zm.61-1.53a18.27,18.27,0,0,0,8.58-15.94V540a16.84,16.84,0,0,0-8.58,15.32Zm8.89-17.47q8.26-5.82,8.58-16.55-8.6,4.61-8.58,14.1ZM360,521.92q4.89-2.45,4.9-9.19v-2.46a37.09,37.09,0,0,0-4,4.6,7,7,0,0,0-1.23,4v.92A8.75,8.75,0,0,0,360,521.92Zm9.19,158.13q8.88-64.35,18.08-128.1-6.13,8.89-11,30.95a396.27,396.27,0,0,0-7.36,46.89,256.52,256.52,0,0,0-1.83,28.2,111.18,111.18,0,0,0,.61,12.25A37.64,37.64,0,0,0,369.19,680.05ZM507.4,468A621.41,621.41,0,0,0,463,570q-13.8,38.31-30.65,75.7c2.65-.62,4.49-1.48,5.52-2.61a7,7,0,0,0,1.84-3.52,3.9,3.9,0,0,0,.91-1.53,790.64,790.64,0,0,0,37.7-94.39Q491.46,505.37,507.4,468Z" transform="translate(-57.83 -334.37)"/><path class="cls-3" d="M559.5,449h-.61a8.38,8.38,0,0,0-4.29,1.07,28.81,28.81,0,0,0-3.37,2.3,14.19,14.19,0,0,1-2.76,2.15,6,6,0,0,1-3.07.92q-1.83,0-4.29-2.15-4-4.29-4-8.89a24.29,24.29,0,0,1,2.14-9.8,11.64,11.64,0,0,0,.92-2.45q6.13-14.72,20.23-20.54a147.35,147.35,0,0,1,67.73-16.54,133.7,133.7,0,0,1,25.13,2.45,40.54,40.54,0,0,1,4.9.92,130.92,130.92,0,0,0,15.63,2.14,112.86,112.86,0,0,1,54.24,16.86q51.18,30.33,51.18,84.89a143.06,143.06,0,0,1-1.84,22.37q-10.73,67.11-63.74,111.85a288.69,288.69,0,0,1-61,40,419.16,419.16,0,0,1-67.72,25.89,139.52,139.52,0,0,0-21,7.66,46.47,46.47,0,0,0-17.31,14.1q-2.46,3.08-4.9,3.07c-1.44,0-2.56-.82-3.38-2.46a12.26,12.26,0,0,0-5.05-6.43,38.38,38.38,0,0,0-6.9-3.07l-3.67-1.22c-4.71-1.43-7.05-4.29-7.05-8.58a14.57,14.57,0,0,1,.61-4,11.48,11.48,0,0,0,.61-3.67q0-4-5.51-4.6-6.13,0-8.58-3.37a13.17,13.17,0,0,1-2.46-8v-1.53a57.41,57.41,0,0,1,2.15-13.18q1.85-6.43,8.89-8,10.41-2.13,13.94-8.27a45.56,45.56,0,0,0,5.06-14.71q5.82-25.74,12-51.49,11.34-45,19.92-91a35.31,35.31,0,0,1,.92-4A19.77,19.77,0,0,0,564.4,483a8.38,8.38,0,0,0-1.68-5.06c-1.13-1.53-3.22-2.8-6.28-3.83a4.72,4.72,0,0,1-2.76-4.29,15.53,15.53,0,0,1,.92-4.9Q556.73,457.87,559.5,449Zm30.65,15.32q-2.76,4.31-9.66,30.19t-14.55,59.45q-7.66,33.57-13.18,61.14t-5.52,33.41v.61h.61a3.87,3.87,0,0,0,3.07-1.07,5.71,5.71,0,0,0,1.23-2.61Q575.13,555.63,590.15,464.3ZM588,638.07a330.36,330.36,0,0,0,59.45-24.37,168.88,168.88,0,0,0,48.12-38.46q25.13-30,25.13-68.64v-5.21a34,34,0,0,0-13.18-27,119.3,119.3,0,0,0-30.34-16.55,98.4,98.4,0,0,0-34-5.82q-11.34,0-13.94,2.14t-4.44,12.57q-2.16,11.64-4.6,23.59-5.82,31.57-12.26,63.13-6.74,30.35-14.4,62.21Q590.76,626.73,588,638.07ZM736,531.42a268.6,268.6,0,0,1-21.15,57A98.25,98.25,0,0,0,731,567.58a48.63,48.63,0,0,0,6.29-24.52A60.06,60.06,0,0,0,736,531.42Z" transform="translate(-57.83 -334.37)"/><path class="cls-4" d="M809.88,354.29a24.65,24.65,0,0,1,1.53-8.28,19.12,19.12,0,0,1,2.76-4.6q4-7,7.35-7,3.06,0,7.05,6.13a28.49,28.49,0,0,1,3.07,6.12,247.5,247.5,0,0,1,16.24,60.68q.92,4.31,1.53,8.28a5.87,5.87,0,0,1,.31,1.84,9.69,9.69,0,0,1-1.84,5.67,37.12,37.12,0,0,1-4,4.75,11.31,11.31,0,0,1-3.06,2.14c-.82.41-1.59.82-2.3,1.23a1.77,1.77,0,0,0-1.07,1.53q-.91,7.35-5.21,11.49a41.87,41.87,0,0,1-9.5,6.9,56,56,0,0,0-6.74,4.59q-5.22,4.61-9.5,4.6-5.52,0-11.34-6.74c-.82-.82-1.64-1.63-2.45-2.45a23.05,23.05,0,0,0-6.75-5.21q-9.19-4.29-12-11.65A55.52,55.52,0,0,1,770.65,419a21.76,21.76,0,0,0-.31-3.68v-2.14q0-8.89,8.89-13.49a45.84,45.84,0,0,0,7.36-5.05,6.31,6.31,0,0,0,2.14-4.75q0-3.37-2.76-9.81a2.37,2.37,0,0,1-.3-.92,99.12,99.12,0,0,1-8.89-30.65v-1.84q0-7.35,4.6-7.35a12.55,12.55,0,0,1,5.51,1.53c2,1,4.09,1.95,6.13,2.76Q801.6,345.71,809.88,354.29Zm4,2.45a31,31,0,0,0-.31,4.29,35,35,0,0,0,1.38,10.11q1.38,4.61,2.92,8.58c1,3.07,1.93,6,2.75,8.89a3,3,0,0,0,1.23,1.53,3.76,3.76,0,0,0,2.14.61h.62q3.06-.92,3.06-3.37a5.84,5.84,0,0,0-.3-1.83,29.71,29.71,0,0,1-.92-4.3,69.7,69.7,0,0,0-3.83-12.1A39,39,0,0,0,813.86,356.74Z" transform="translate(-57.83 -334.37)"/><path class="cls-5" d="M1022.16,525a15,15,0,0,0-10.44-13.72c-4.15-1.48-10-1.84-19-1.18a9.42,9.42,0,0,0-3.64,1.08,36.24,36.24,0,0,0-9.15,5.13,94.21,94.21,0,0,0-9.62,8.11c-2.88,2.79-5.41,5.43-7.55,7.85-2.94,3.34-4.87,6.15-5.18,9.46A20.78,20.78,0,0,0,959.86,554c2.22,4.49,5,6.78,7.6,7.87l-5.36,15.81c-2,5.94-3.94,11.84-5.75,17.54s-3.52,11.08-5.16,16.17l-1.6,5q-2.45,7-5.39,15.65a95.86,95.86,0,0,0-4.4,17.72l-4.5,17.15a2.29,2.29,0,0,0-.07.36l-2.72,12.48c-.49,2.21-1,4.49-1.46,6.85q-6.31-1.1-12.68-1.81A278.06,278.06,0,0,0,887.5,683c-6.25,0-11.72.1-16.26.28s-9.33.51-13.94,1c-4.18.4-8.79,1-13.73,1.74q3-3.79,5.56-7.07a66,66,0,0,1,4.51-5.23,9.18,9.18,0,0,0,1.12-1.37l1.47-2.17a8.9,8.9,0,0,0,1.35-1.25c1.24-1.42,3.08-3.46,5.48-6.15s5-5.39,7.65-8.17,5.55-5.68,8.31-8.46c2.6-2.58,4.91-4.73,6.88-6.37.21-.17.41-.36.6-.54l2.43-2.45c.06,0,.11-.11.17-.17l5.42-5.7a5.67,5.67,0,0,0,.68-.79c1-1.28,1.95-2.51,2.89-3.61a11.75,11.75,0,0,1,1.95-1.82,9.28,9.28,0,0,0,1.12-.94,26.64,26.64,0,0,0,2.18-2.57c.43-.6.84-1.12,1.24-1.58a7,7,0,0,1,.51-.6l.16-.17a11.44,11.44,0,0,0,1-1.17l4.42-5.59a79.88,79.88,0,0,0,5.58-6.94c1.66-2.28,3.3-4.61,4.94-7l4.84-6.73a3.37,3.37,0,0,0,.31-.46l6-9.59,5.17-8.42c.07-.13.16-.28.24-.41a109.94,109.94,0,0,0,7.12-16.74,56.61,56.61,0,0,0,2.61-22.72,8.77,8.77,0,0,0-.93-3.33,16.25,16.25,0,0,0-1.86-2.83A25.18,25.18,0,0,0,943,525a1.32,1.32,0,0,1,0-.23,8.93,8.93,0,0,0-2.44-4.42,32.25,32.25,0,0,0-3.66-3.12,24.56,24.56,0,0,0-2.86-1.88l-.15-.11A31.74,31.74,0,0,0,919,510.05a61.87,61.87,0,0,0-14.66.16,74.54,74.54,0,0,0-30.83,10.52,159.56,159.56,0,0,0-24.63,19.44l-2,1.78-.44.4c-1.21,1.21-2.36,2.4-3.39,3.54s-1.89,2.18-2.79,3.36a25.84,25.84,0,0,0-2.22,2.22c-.69.78-1.35,1.58-2,2.42l-.85,1a11.32,11.32,0,0,0-4.4,4.26c-3.26,4.82-3,10.49.83,14.63a22.73,22.73,0,0,0,3.65,3.24,21.4,21.4,0,0,0,3.16,2.89,23.11,23.11,0,0,0,6.61,3.38c.26.08.53.16.78.22,5.63,1.33,10.3.73,13.91-1.75a25.15,25.15,0,0,0,5.68-5.37l1.67-1.91a210.5,210.5,0,0,1,18.09-18A56.89,56.89,0,0,1,904.71,545c.2-.06.39-.13.59-.21a53.59,53.59,0,0,1,7.86-2.55,54.62,54.62,0,0,1-2.83,7.87l-.27.64a92.14,92.14,0,0,1-7.18,15A125.27,125.27,0,0,1,894,578.82l-7.11,9.3c-.92,1.24-2,2.53-3.1,3.82a42.93,42.93,0,0,0-4,5.24,79,79,0,0,1-5.22,6.53c-2.15,2.4-4.2,4.67-6.18,6.84l-27.62,29.78q-7.63,8.17-15.66,16.88l-15.36,16.72q-7.32,8-13.3,14.53c-2.76,3-5.06,5.55-7,7.67a14.62,14.62,0,0,0-1.79.45,9.17,9.17,0,0,0-6.27,7.66l0,.58a3.37,3.37,0,0,0-.12.48,7.88,7.88,0,0,0-.9,2c-.12.24-.22.48-.32.72a12.29,12.29,0,0,0-.71,9.36,8.55,8.55,0,0,0,.5,1.21,14.36,14.36,0,0,0,4.56,4.91,17.06,17.06,0,0,0,5.89,3l.13,0a10.2,10.2,0,0,0,1.39,1.06,8.83,8.83,0,0,0,7.05,1c7.5-2,14.28-3.89,20.15-5.61,5.57-1.63,10.63-2.89,15-3.73,8.78-1.61,15.65-2.84,20.39-3.64s8.59-1.42,11.71-1.87a53,53,0,0,1,7.3-.58c2.72,0,6.3,0,10.63-.14s10.36-.26,18.06-.55c6.45-.24,14.86-.62,25-1.18A40.12,40.12,0,0,0,927,716a20.06,20.06,0,0,0,3.4,11.12,11.85,11.85,0,0,0,9.58,4.9,17.57,17.57,0,0,0,8.16-2.29,9.85,9.85,0,0,0,1.74-1.21l4.61-4.07a8.77,8.77,0,0,0,2.32-3.18l1.63-3.81a9.15,9.15,0,0,0,.67-2.64l.49-4.84a7.41,7.41,0,0,0,.24-1.06,8.87,8.87,0,0,0,.28-1.34c.67-2.85,1.35-5.61,2-8.32s1.45-5.47,2.3-8.18l1.36-4.34a7.52,7.52,0,0,0,.3-1.31,9.12,9.12,0,0,0,.28-1.38l1.21-6,17.14-59.45a72.92,72.92,0,0,0,2.43-7c.6-2,1.26-4.14,2-6.23l4.91-15q1.63-5.22,3.15-10.14c.9-3,1.94-5.88,3.11-8.7.1-.27.19-.53.28-.79l.22-.35a7.35,7.35,0,0,0,.69-1.22,92,92,0,0,0,3.91-9.9,38.79,38.79,0,0,1,3.75-7.91q2.22-3.61,4.58-7.65c1.49-2.55,3-5.07,4.38-7.55l.91-1.37a9,9,0,0,0,.76-1.39c.19-.31.39-.66.58-1a14.13,14.13,0,0,0,1.79-6.91C1022.17,525.33,1022.17,525.14,1022.16,525ZM873.29,543.07a224.63,224.63,0,0,0-19.69,19.54l-1.9,2.18a3.92,3.92,0,0,0-.43.54c-.24.29-.48.58-.75.85l-.21,0a5.76,5.76,0,0,1-.86-.39l.25-.29c.15-.17.29-.33.42-.51.43-.57.88-1.14,1.34-1.66a4.88,4.88,0,0,1,.68-.63,8.93,8.93,0,0,0,1.91-2,29.83,29.83,0,0,1,2.18-2.68c.8-.88,1.7-1.83,2.64-2.77l1.94-1.7a3.15,3.15,0,0,1,.28-.25A148,148,0,0,1,877,540C875.72,541,874.5,542,873.29,543.07Zm-77,175.51.54.27A.78.78,0,0,1,796.26,718.58Zm48.89-7.66c21.35-9.83,38.38-3.12,38.38-3.12C874.17,705.16,845.15,710.92,845.15,710.92ZM961.8,677.6s.28,1-1.9,1.3,19.73-73.24,26.77-82.63Z" transform="translate(-57.83 -334.37)"/></svg>