<svg xmlns="http://www.w3.org/2000/svg" xmlns:xlink="http://www.w3.org/1999/xlink" width="155.051" height="56.471" viewBox="0 0 155.051 56.471">
    <defs>
        <linearGradient id="bqt5xg9uma" x1="-.208" x2="6.917" y1=".471" y2=".788" gradientUnits="objectBoundingBox">
            <stop offset="0" stop-color="#5179bc"/>
            <stop offset=".01" stop-color="#5179bc"/>
            <stop offset=".537" stop-color="#52bbeb"/>
            <stop offset="1" stop-color="#5bc1a1"/>
        </linearGradient>
        <linearGradient id="qudt4s2pxb" x1="-.599" x2="3.806" y1=".443" y2=".762" xlink:href="#bqt5xg9uma"/>
        <linearGradient id="v2mlkh06xc" x1="-1.732" x2="3.554" y1=".366" y2=".713" xlink:href="#bqt5xg9uma"/>
        <linearGradient id="b1gsmfc7vd" x1="-9.309" x2="9.263" y1=".015" y2=".929" xlink:href="#bqt5xg9uma"/>
        <linearGradient id="77t13blhbe" x1="-3.138" x2="2.917" y1=".182" y2=".7" xlink:href="#bqt5xg9uma"/>
    </defs>
    <g>
        <g>
            <path fill="url(#bqt5xg9uma)" d="M433.77 431.091h-1.061a4.239 4.239 0 0 1-2.178-.362 3.607 3.607 0 0 1-.949-1.771.658.658 0 0 0-.335-.382 3.856 3.856 0 0 0-.5-.181 2.547 2.547 0 0 1-.279-.08q-1.452-.523-1.452-1.53a2.492 2.492 0 0 1 .223-.966 2.264 2.264 0 0 1 .67-1.188 2.739 2.739 0 0 1 1.675-.543 20.974 20.974 0 0 0 2.29-.2q.893-.12 1.787-.2 2.513-.08 2.792-1.973 1.563-6.723 3.239-13.365.557-2.093 1.061-4.187 1.06-4.266 2.234-8.534a2.759 2.759 0 0 0 .056-.523q0-.684-1.34-.8a6.269 6.269 0 0 1-1.815-.342.826.826 0 0 1-.475-.825 6.345 6.345 0 0 1 .112-1.047 1.4 1.4 0 0 0 .056-.362q0-.8-1.173-.725h-.391a1.564 1.564 0 0 1-1.145-.362 3.413 3.413 0 0 1-.587-.765.261.261 0 0 0-.056-.121 2.025 2.025 0 0 1-.223-.926 2.6 2.6 0 0 1 1.033-1.952 5 5 0 0 1 2.6-1.147q3.854-.563 7.651-1.127 3.183-.483 6.311-.966a1.455 1.455 0 0 1 .335-.04 6.932 6.932 0 0 1 1.619-.2 3.164 3.164 0 0 1 1.173.221 2.863 2.863 0 0 1 1.061.785 1.337 1.337 0 0 0 1.005.4 3.666 3.666 0 0 0 1.005-.161c.223-.026.427-.054.614-.081a20.3 20.3 0 0 1 2.848-.282q1.562 0 1.452 1.006a7.811 7.811 0 0 1-.447 2.134 3.427 3.427 0 0 1-.335.886 1.74 1.74 0 0 1-.838.684 9.456 9.456 0 0 0-3.574 2.456 1.98 1.98 0 0 1-1.005.543 7.77 7.77 0 0 1-1.284.181q-.5.041-.949.121a15.587 15.587 0 0 0-2.122.4 1.4 1.4 0 0 0-.893.624 6.163 6.163 0 0 0-.447 1.349.988.988 0 0 1-.056.322q-1.508 6.763-3.127 13.526l-1.564 6.763q-.28 1.087-.558 2.214-.5 1.812-.949 3.623a4.448 4.448 0 0 0-.168 1.087 1.134 1.134 0 0 0 .7 1.147 6.352 6.352 0 0 0 2.317.3h1.4a5.7 5.7 0 0 1 .67-.04 2.882 2.882 0 0 1 .921.141 1.689 1.689 0 0 1 .754.543.792.792 0 0 1 .168.523 3.244 3.244 0 0 1-.587 1.63 7.155 7.155 0 0 1-1.2 1.51 8.114 8.114 0 0 1-3.742 1.912 21.459 21.459 0 0 1-4.579.463q-3.686.121-7.036.523-1.297.118-2.413.239zm5.919-8.333q.614-2.174 1.228-4.307a198.537 198.537 0 0 0 5.7-24.274 215.157 215.157 0 0 0-6.927 28.581z" transform="translate(-427.013 -353.826) translate(427.013 353.826) translate(-427.013 -375.345)"/>
            <path fill="url(#qudt4s2pxb)" d="M546.639 415.451a6.524 6.524 0 0 0 1.9-1.928.5.5 0 0 1 .167-.2q2.792-3.978 5.64-7.955 2.792-3.937 5.585-7.915a10.487 10.487 0 0 1 2.959-3.094 4.169 4.169 0 0 1 1.229 1 5.831 5.831 0 0 1 .726 1.165 4.289 4.289 0 0 0 .447.8 6.7 6.7 0 0 1 3.239-1.647l.224-.08a3.99 3.99 0 0 1 1.284-.281q1.005 0 1.173 1.326l.112.643a10.562 10.562 0 0 1 .112 1.527 11.565 11.565 0 0 1-.223 2.25q-.056.723-.112 1.487a101.957 101.957 0 0 1-1.843 11.129q-.615 2.772-1.117 5.585a.67.67 0 0 1-.056.281.9.9 0 0 0-.168.522v.121a1.127 1.127 0 0 0 .447.643 6.925 6.925 0 0 0 1.564-1.929c.111-.187.223-.362.335-.522a90.378 90.378 0 0 0 6.757-12.093 73.83 73.83 0 0 1 7.26-12.133q.893-1.606 2.066-1.607a4.485 4.485 0 0 1 2.346 1.045 2.366 2.366 0 0 0 1.173.4 1.8 1.8 0 0 0 .838-.2 2.866 2.866 0 0 0 .447-.161 5.851 5.851 0 0 1 1.452-.241q.949 0 1.061.763v.08a1.115 1.115 0 0 1 .056.362 2 2 0 0 1-.056.442l-.056.4a4.5 4.5 0 0 1-.726 2.411 86.926 86.926 0 0 0-7.483 12.776q-1.285 2.531-2.569 4.982a86.681 86.681 0 0 1-4.411 7.513 39 39 0 0 1-11.281 10.526 4.877 4.877 0 0 1-2.736 1 4.32 4.32 0 0 1-3.295-1.969 4.68 4.68 0 0 0-1.117-1.125 7.652 7.652 0 0 1-2.29-2.31 6.608 6.608 0 0 1-.893-2.591 8.289 8.289 0 0 1-.056-.964v-.522q.223-2.37.558-4.7l.223-2.049h-.167a1.174 1.174 0 0 0-.782.2.858.858 0 0 0-.279.482 2.735 2.735 0 0 1-.223.281A68.774 68.774 0 0 1 541 433.29a.918.918 0 0 0-.279.2 5.878 5.878 0 0 1-.894.522 2.818 2.818 0 0 1-1.172.281 2.742 2.742 0 0 1-1.9-.763 1.336 1.336 0 0 1-.279-.643V432a.866.866 0 0 0-.447-.6 3 3 0 0 0-.838-.281 5.614 5.614 0 0 1-.782-.221 2.046 2.046 0 0 1-.726-.462 3.021 3.021 0 0 1-.949-1.687v-.362a4.822 4.822 0 0 1 .112-1q1.62-8.678 3.853-17.236.837-3.375 1.564-6.75 1.562-6.83 3.574-13.5l.168-.562a3.305 3.305 0 0 1 .447-1.185 2.284 2.284 0 0 1 1.229-.864 1.609 1.609 0 0 1 .81.462 3.487 3.487 0 0 1 .419.623 1.773 1.773 0 0 0 .558.8.99.99 0 0 1 .447.6v.121a.765.765 0 0 1-.279.6 5.628 5.628 0 0 0-1.619 2.29 12.077 12.077 0 0 0-.615 2.531q-.112.844-.279 1.647-2.29 9.321-4.467 18.642-.894 3.616-1.731 7.192a.9.9 0 0 1-.112.442 1.633 1.633 0 0 0-.168.683v.161a1.6 1.6 0 0 0 .279.643 1.932 1.932 0 0 0 1.117-.764 1.98 1.98 0 0 0 .279-1l.112-.482q3.462-14.223 7.036-28.445l.279-.723a5.108 5.108 0 0 0 .335-1.447 2.387 2.387 0 0 1 1.145-2.19 11.152 11.152 0 0 1 2.6-1.145c.26-.107.5-.2.726-.281a1.826 1.826 0 0 1 .614-.121 1.092 1.092 0 0 1 1.117 1l.056.241a13.271 13.271 0 0 1-.558 3.777q-2.234 8.678-4.468 17.4-.448 1.889-.949 3.736a.108.108 0 0 1-.056.08v.522a1.4 1.4 0 0 0 .33.566zm9.1-5.384a7.908 7.908 0 0 0-2.848 4.219q.446-.562.893-1.085a5.794 5.794 0 0 0 1.958-3.134zm.112-.2a2.327 2.327 0 0 0 1.564-2.089v-.08a2.18 2.18 0 0 0-1.564 2.009zm1.62-2.29a2.488 2.488 0 0 0 1.564-2.17q-1.564.6-1.564 1.848zm1.564-2.25a1.2 1.2 0 0 0 .894-1.205v-.322a5.814 5.814 0 0 0-.726.6.754.754 0 0 0-.223.522v.121a.865.865 0 0 0 .056.284zm1.675 20.731q1.619-8.437 3.295-16.794a10.451 10.451 0 0 0-2.01 4.058 38.529 38.529 0 0 0-1.34 6.147 24.227 24.227 0 0 0-.335 3.7 10.5 10.5 0 0 0 .111 1.607 3.7 3.7 0 0 0 .281 1.282zm25.185-27.8a72.21 72.21 0 0 0-8.1 13.379q-2.513 5.023-5.584 9.924a2.311 2.311 0 0 0 1.005-.341.862.862 0 0 0 .335-.462.512.512 0 0 0 .168-.2 89.424 89.424 0 0 0 6.869-12.374q2.404-5.027 5.312-9.929z" transform="translate(-427.013 -353.826) translate(427.013 353.826) translate(-511.111 -378.185)"/>
            <path fill="url(#v2mlkh06xc)" d="M734.221 401.3h-.112a2.072 2.072 0 0 0-.782.136 5.688 5.688 0 0 0-.614.291 2.69 2.69 0 0 1-.5.272 1.441 1.441 0 0 1-.558.116 1.56 1.56 0 0 1-.782-.272 1.475 1.475 0 0 1-.726-1.125 2.313 2.313 0 0 1 .391-1.242 1.286 1.286 0 0 0 .168-.31 5.99 5.99 0 0 1 3.686-2.6 36.706 36.706 0 0 1 12.341-2.1 34.919 34.919 0 0 1 4.579.311q.446.039.894.116 1.4.195 2.848.272a27.381 27.381 0 0 1 9.884 2.134q9.325 3.842 9.326 10.749a12.773 12.773 0 0 1-.335 2.833q-1.955 8.5-11.616 14.164a58.747 58.747 0 0 1-11.113 5.064 99.177 99.177 0 0 1-12.342 3.279 33 33 0 0 0-3.825.97 8.586 8.586 0 0 0-3.155 1.785 1.371 1.371 0 0 1-.894.388.713.713 0 0 1-.614-.311 1.821 1.821 0 0 0-.921-.815 8.76 8.76 0 0 0-1.257-.388l-.67-.155q-1.285-.271-1.285-1.087a1.324 1.324 0 0 1 .112-.5 1.075 1.075 0 0 0 .111-.466q0-.5-1.005-.582a2.249 2.249 0 0 1-1.564-.427 1.35 1.35 0 0 1-.447-1.009v-.191a5.279 5.279 0 0 1 .391-1.669 1.875 1.875 0 0 1 1.619-1.009 3.994 3.994 0 0 0 2.541-1.048 4.728 4.728 0 0 0 .922-1.862q1.06-3.26 2.178-6.519 2.065-5.7 3.63-11.525a3.332 3.332 0 0 1 .168-.5 1.833 1.833 0 0 0 .223-.854.872.872 0 0 0-.307-.64 2.569 2.569 0 0 0-1.145-.485q-.5-.194-.5-.543a1.47 1.47 0 0 1 .168-.621q.385-.898.889-2.025zm5.584 1.94a17.234 17.234 0 0 0-1.759 3.822q-1.257 3.279-2.653 7.528t-2.4 7.741a24.675 24.675 0 0 0-1 4.23v.078h.112a.894.894 0 0 0 .558-.136.65.65 0 0 0 .223-.33 198.647 198.647 0 0 0 6.919-22.931zm-.391 22a77.044 77.044 0 0 0 10.834-3.085 31.533 31.533 0 0 0 8.767-4.87q4.579-3.8 4.579-8.692v-.66a4.026 4.026 0 0 0-2.4-3.415 25.865 25.865 0 0 0-5.529-2.1 25.141 25.141 0 0 0-6.2-.737 6.818 6.818 0 0 0-2.541.272q-.475.272-.81 1.591-.391 1.475-.838 2.988-1.062 4-2.234 7.994-1.229 3.842-2.625 7.877-.5 1.405-1.003 2.841zm26.972-13.5a28.488 28.488 0 0 1-3.853 7.217 14.318 14.318 0 0 0 2.932-2.639 4.782 4.782 0 0 0 1.145-3.1 5.348 5.348 0 0 0-.223-1.478z" transform="translate(-427.013 -353.826) translate(427.013 353.826) translate(-663.479 -383.415)"/>
            <path fill="url(#b1gsmfc7vd)" d="M911.5 357.456a4.5 4.5 0 0 1 .279-1.508 3.533 3.533 0 0 1 .5-.838q.725-1.284 1.34-1.284.557 0 1.284 1.117a5.245 5.245 0 0 1 .558 1.117 44.971 44.971 0 0 1 2.96 11.057q.168.783.279 1.508a1.068 1.068 0 0 1 .056.335 1.754 1.754 0 0 1-.335 1.033 6.613 6.613 0 0 1-.726.866 2.127 2.127 0 0 1-.558.391q-.224.112-.419.223a.324.324 0 0 0-.2.279 3.386 3.386 0 0 1-.949 2.094 7.633 7.633 0 0 1-1.731 1.257 10.209 10.209 0 0 0-1.229.838 2.756 2.756 0 0 1-1.731.838 2.888 2.888 0 0 1-2.066-1.229q-.224-.222-.447-.447a4.213 4.213 0 0 0-1.229-.949 3.927 3.927 0 0 1-2.178-2.122 10.149 10.149 0 0 1-.614-2.792 4.035 4.035 0 0 0-.056-.67v-.391a2.65 2.65 0 0 1 1.619-2.457 8.206 8.206 0 0 0 1.34-.921 1.143 1.143 0 0 0 .391-.866 5.06 5.06 0 0 0-.5-1.787.417.417 0 0 1-.056-.168 18.024 18.024 0 0 1-1.619-5.584v-.335q0-1.34.838-1.34a2.294 2.294 0 0 1 1.005.279q.558.28 1.117.5a6.6 6.6 0 0 1 3.077 1.956zm.726.447a5.529 5.529 0 0 0-.056.782 6.391 6.391 0 0 0 .251 1.843q.251.838.53 1.564.279.838.5 1.619a.534.534 0 0 0 .224.279.684.684 0 0 0 .391.112h.112q.558-.167.559-.614a1.068 1.068 0 0 0-.056-.335 5.658 5.658 0 0 1-.168-.782 12.6 12.6 0 0 0-.7-2.206 7.119 7.119 0 0 0-1.585-2.265z" transform="translate(-427.013 -353.826) translate(427.013 353.826) translate(-795.136 -353.826)"/>
        </g>
        <g>
            <g>
                <g>
                    <g>
                        <path fill="url(#77t13blhbe)" d="M954.274 474.052a2.741 2.741 0 0 0-1.9-2.5 8.819 8.819 0 0 0-3.46-.215 1.7 1.7 0 0 0-.664.2 6.631 6.631 0 0 0-1.668.936 17.076 17.076 0 0 0-1.752 1.477c-.525.509-.988.99-1.376 1.431a3.142 3.142 0 0 0-.944 1.725 3.794 3.794 0 0 0 .413 2.233 2.782 2.782 0 0 0 1.385 1.434l-.977 2.881c-.368 1.083-.718 2.157-1.048 3.2s-.642 2.018-.941 2.946l-.291.919q-.445 1.281-.982 2.851a17.591 17.591 0 0 0-.8 3.229l-.819 3.126a.536.536 0 0 0-.014.065l-.5 2.274c-.09.4-.177.819-.267 1.249q-1.151-.2-2.31-.329a50.289 50.289 0 0 0-5.626-.324c-1.14 0-2.135.019-2.962.052-.843.033-1.7.092-2.541.174-.762.073-1.6.18-2.5.318.359-.462.7-.892 1.015-1.289a11.909 11.909 0 0 1 .821-.952 1.655 1.655 0 0 0 .2-.25l.267-.395a1.648 1.648 0 0 0 .247-.228c.225-.259.56-.631 1-1.121s.9-.982 1.393-1.488q.759-.784 1.515-1.543c.473-.47.9-.862 1.254-1.161.038-.03.073-.065.109-.1l.444-.446a.36.36 0 0 0 .03-.03l.987-1.039a1.1 1.1 0 0 0 .125-.144c.177-.234.354-.457.525-.659a2.222 2.222 0 0 1 .356-.332 1.515 1.515 0 0 0 .2-.172 4.577 4.577 0 0 0 .4-.468c.079-.109.152-.2.226-.289a1.217 1.217 0 0 1 .093-.109l.03-.03a2.067 2.067 0 0 0 .174-.215l.805-1.018a14.8 14.8 0 0 0 1.017-1.265q.453-.625.9-1.273l.882-1.227a.585.585 0 0 0 .057-.084l1.1-1.746.941-1.535.044-.076a19.958 19.958 0 0 0 1.3-3.049 10.306 10.306 0 0 0 .476-4.14 1.614 1.614 0 0 0-.169-.607 3 3 0 0 0-.34-.517c-.1-.123-.2-.231-.3-.343a.2.2 0 0 1-.011-.044 1.632 1.632 0 0 0-.443-.805 6.114 6.114 0 0 0-.667-.569 4.5 4.5 0 0 0-.522-.342l-.027-.019a5.8 5.8 0 0 0-2.706-.947 11.379 11.379 0 0 0-2.671.03 13.555 13.555 0 0 0-5.618 1.918 29.014 29.014 0 0 0-4.489 3.542l-.37.323c-.027.024-.054.049-.079.074-.22.22-.43.438-.617.645-.174.19-.346.4-.509.612a4.4 4.4 0 0 0-.405.405c-.125.141-.245.288-.362.441l-.155.177a2.311 2.311 0 0 0-.65 3.441 58.744 58.744 0 0 1 1.24 1.118 4.177 4.177 0 0 0 1.2.615 1.414 1.414 0 0 0 .142.041 3.084 3.084 0 0 0 2.535-.318 4.583 4.583 0 0 0 1.034-.979l.3-.348a38.2 38.2 0 0 1 3.3-3.273 10.351 10.351 0 0 1 3.566-2.1c.035-.011.07-.024.106-.038a9.817 9.817 0 0 1 1.434-.465 9.971 9.971 0 0 1-.517 1.434l-.049.117a16.813 16.813 0 0 1-1.308 2.728 22.978 22.978 0 0 1-1.627 2.394l-1.295 1.695c-.169.226-.359.46-.566.7a7.8 7.8 0 0 0-.721.955 14.426 14.426 0 0 1-.952 1.189c-.391.438-.764.851-1.126 1.246l-5.033 5.427q-1.391 1.49-2.854 3.077t-2.8 3.047q-1.334 1.46-2.424 2.647c-.5.546-.922 1.012-1.265 1.4a2.561 2.561 0 0 0-.326.082 1.667 1.667 0 0 0-1.143 1.4l-.008.106a.819.819 0 0 0-.022.087 1.442 1.442 0 0 0-.163.362c-.022.044-.041.087-.06.131a2.24 2.24 0 0 0-.128 1.706 1.559 1.559 0 0 0 .09.221 2.633 2.633 0 0 0 .832.895 3.1 3.1 0 0 0 1.072.544l.025.005a1.954 1.954 0 0 0 .253.193 1.642 1.642 0 0 0 .86.245 1.608 1.608 0 0 0 .424-.057c1.369-.368 2.6-.71 3.672-1.023 1.015-.3 1.937-.528 2.729-.68 1.6-.294 2.851-.517 3.716-.664.846-.144 1.564-.258 2.133-.34a9.76 9.76 0 0 1 1.33-.106c.5 0 1.148-.008 1.937-.025.811-.016 1.888-.049 3.292-.1 1.175-.044 2.707-.114 4.564-.215a7.2 7.2 0 0 0-.019.865 3.656 3.656 0 0 0 .62 2.027 2.161 2.161 0 0 0 1.746.892 3.2 3.2 0 0 0 1.485-.416 1.827 1.827 0 0 0 .318-.221l.841-.742a1.62 1.62 0 0 0 .422-.579l.3-.694a1.627 1.627 0 0 0 .122-.482l.09-.881a1.537 1.537 0 0 0 .043-.193 1.606 1.606 0 0 0 .052-.245c.122-.52.245-1.023.37-1.515s.264-1 .419-1.491l.247-.791a1.443 1.443 0 0 0 .054-.24 1.554 1.554 0 0 0 .052-.25l.22-1.1 3.123-10.833c.169-.419.318-.843.443-1.27.109-.373.228-.754.356-1.134l.9-2.737q.3-.951.574-1.847c.163-.539.353-1.072.566-1.586.019-.049.035-.1.052-.144.014-.019.027-.041.041-.063a1.369 1.369 0 0 0 .125-.223 16.813 16.813 0 0 0 .713-1.8 6.977 6.977 0 0 1 .683-1.441q.4-.657.835-1.393l.8-1.376.166-.25a1.606 1.606 0 0 0 .138-.253c.036-.057.071-.12.106-.185a2.574 2.574 0 0 0 .326-1.26c-.004-.051-.004-.087-.007-.119zm-27.127 3.3a41.244 41.244 0 0 0-3.588 3.561l-.345.4a.92.92 0 0 0-.079.1 1.832 1.832 0 0 1-.136.155l-.038-.008a1.151 1.151 0 0 1-.158-.071l.046-.054c.027-.03.052-.06.076-.092.079-.1.161-.207.245-.3a.772.772 0 0 1 .122-.114 1.623 1.623 0 0 0 .348-.359 5.646 5.646 0 0 1 .4-.49c.147-.16.31-.332.481-.5l.353-.31.052-.047a27.055 27.055 0 0 1 2.894-2.421c-.229.166-.453.353-.673.549zm-14.037 31.982l.1.049a.141.141 0 0 1-.1-.049zm8.909-1.4a9.489 9.489 0 0 1 6.994-.568c-1.705-.477-6.994.572-6.994.572zm21.257-6.071s.052.179-.346.236 3.594-13.346 4.878-15.057z" transform="translate(-427.013 -353.826) translate(537.703 367.303) translate(-909.917 -471.27)"/>
                    </g>
                </g>
            </g>
        </g>
    </g>
</svg>
