<svg xmlns="http://www.w3.org/2000/svg" width="131.733" height="97.767" viewBox="0 0 131.733 97.767">
    <g>
        <g>
            <path fill="#6ba0e1" stroke="#6ba0e1" d="M130.432 89.782a2.176 2.176 0 0 0-1.1-1.1L66.2 60.383a2.177 2.177 0 0 0-1.781 0L1.29 88.683a2.177 2.177 0 0 0 0 3.975l20.483 9.18v38.9a2.177 2.177 0 0 0 .775 1.665C34.943 152.88 50.907 156.99 66.2 156.948c15.124-.041 29.578-4.151 41.873-14.543a2.177 2.177 0 0 0 .775-1.665v-38.9l8.708-3.9v37.8l-3.265 4.885a6.507 6.507 0 0 0-1.088 3.622v2.523a6.531 6.531 0 0 0 13.062 0v-2.53a6.507 6.507 0 0 0-1.088-3.622l-3.265-4.878V95.984l7.421-3.326a2.177 2.177 0 0 0 1.099-2.876zM104.5 139.717a60.837 60.837 0 0 1-38.3 13.577 61.888 61.888 0 0 1-40.075-13.577V103.8l38.294 17.167a2.177 2.177 0 0 0 1.781 0l38.3-17.176zm17.415 7.04a2.177 2.177 0 1 1-4.354 0v-2.523a2.163 2.163 0 0 1 .366-1.206l1.811-2.723 1.811 2.717a2.163 2.163 0 0 1 .366 1.206zM118.5 92.743l-53.015-4.25a2.184 2.184 0 0 0-.348 4.354l45.1 3.607-44.926 20.122L7.5 90.67l57.811-25.905 57.808 25.905z" transform="translate(.507 -59.681) translate(.001 60.192) translate(-.001 -60.192)"/>
        </g>
    </g>
</svg>
