<svg xmlns="http://www.w3.org/2000/svg" id="online-business" width="113.927" height="104.119" viewBox="0 0 113.927 104.119">
    <defs>
        <style>
            .cls-1{fill:#80c390}
        </style>
    </defs>
    <g id="Group_44" transform="translate(47.883)">
        <path id="Path_79" d="M75.293 55.037a2.022 2.022 0 0 1-1.651-.55l-13.759-9.356a10.368 10.368 0 0 0-4.4-1.1H20.256A8.465 8.465 0 0 1 12 35.774V8.256A8.465 8.465 0 0 1 20.256 0h49.533a8.465 8.465 0 0 1 8.256 8.256v44.03c0 1.1-.55 2.2-1.651 2.2 0 .55-.55.55-1.1.55zM20.256 5.5A2.6 2.6 0 0 0 17.5 8.256v27.518a2.6 2.6 0 0 0 2.752 2.752H55.48a12.636 12.636 0 0 1 7.705 2.2l9.356 6.6V8.256A2.6 2.6 0 0 0 69.789 5.5z" class="cls-1" transform="translate(-12)"/>
    </g>
    <g id="Group_45" transform="translate(0 11.007)">
        <path id="Path_80" d="M2.752 57.037c-.55 0-1.1 0-1.1-.55-1.1 0-1.651-1.1-1.651-2.2V10.256A8.465 8.465 0 0 1 8.256 2h44.03a2.6 2.6 0 0 1 2.752 2.752A2.6 2.6 0 0 1 52.286 7.5H8.256A2.6 2.6 0 0 0 5.5 10.256v39.076l9.356-6.054a13.15 13.15 0 0 1 7.705-2.752H68.8a2.752 2.752 0 0 1 0 5.5H22.565a6.249 6.249 0 0 0-4.4 1.651L4.4 57.037H2.752z" class="cls-1" transform="translate(0 -2)"/>
    </g>
    <g id="Group_46" transform="translate(13.759 47.398)">
        <path id="Path_81" d="M19.011 45.022A16.216 16.216 0 0 1 2.5 28.511 16.217 16.217 0 0 1 19.011 12a16.217 16.217 0 0 1 16.511 16.511 16.216 16.216 0 0 1-16.511 16.511zm0-27.519a11.007 11.007 0 1 0 11.008 11.008A11.04 11.04 0 0 0 19.011 17.5z" class="cls-1" transform="translate(-2.5 -12)"/>
    </g>
    <g id="Group_47" transform="translate(0 76.601)">
        <path id="Path_82" d="M57.789 46.519a2.6 2.6 0 0 1-2.752-2.752V32.759a8.465 8.465 0 0 0-8.255-8.259H13.759A8.465 8.465 0 0 0 5.5 32.759v11.008a2.6 2.6 0 0 1-2.752 2.752A2.6 2.6 0 0 1 0 43.767V32.759A13.626 13.626 0 0 1 13.759 19h33.023a13.626 13.626 0 0 1 13.759 13.759v11.008a2.6 2.6 0 0 1-2.752 2.752z" class="cls-1" transform="translate(0 -19)"/>
    </g>
    <g id="Group_48" transform="translate(67.146 47.398)">
        <path id="Path_83" d="M32.011 45.022A16.216 16.216 0 0 1 15.5 28.511 16.217 16.217 0 0 1 32.011 12a16.217 16.217 0 0 1 16.511 16.511 16.216 16.216 0 0 1-16.511 16.511zm0-27.519a11.007 11.007 0 1 0 11.008 11.008A11.04 11.04 0 0 0 32.011 17.5z" class="cls-1" transform="translate(-15.5 -12)"/>
    </g>
    <g id="Group_49" transform="translate(53.386 76.601)">
        <path id="Path_84" d="M70.789 46.519a2.6 2.6 0 0 1-2.752-2.752V32.759a8.465 8.465 0 0 0-8.255-8.259H26.759a8.465 8.465 0 0 0-8.259 8.259v11.008a2.6 2.6 0 0 1-2.752 2.752A2.6 2.6 0 0 1 13 43.767V32.759A13.626 13.626 0 0 1 26.759 19h33.023a13.626 13.626 0 0 1 13.759 13.759v11.008a2.6 2.6 0 0 1-2.752 2.752z" class="cls-1" transform="translate(-13 -19)"/>
    </g>
</svg>
