<svg xmlns="http://www.w3.org/2000/svg" xmlns:xlink="http://www.w3.org/1999/xlink" width="563.214" height="402.65" viewBox="0 0 563.214 402.65">
  <defs>
    <linearGradient id="linear-gradient" x1="0.5" x2="0.5" y2="1" gradientUnits="objectBoundingBox">
      <stop offset="0" stop-color="#8c8ed2"/>
      <stop offset="1" stop-color="#512863"/>
    </linearGradient>
  </defs>
  <path id="Subtraction_1" data-name="Subtraction 1" d="M-1139.405,402.65h-561.566c-.47-3.536-.809-7.121-1.009-10.658a168.6,168.6,0,0,1,.817-27.4,234.566,234.566,0,0,1,4.853-28.03,363.126,363.126,0,0,1,18-54.9c14.942-36.358,33.546-68.473,42.487-83.907,6.9-11.917,16.458-28.053,29.173-47.208a646.9,646.9,0,0,1,49.833-66.164,417.417,417.417,0,0,1,30.745-32,273.646,273.646,0,0,1,33.608-26.914,191.373,191.373,0,0,1,17.638-10.525,149.527,149.527,0,0,1,18.065-8.025,119.2,119.2,0,0,1,18.4-5.115A100.05,100.05,0,0,1-1419.731,0c.639,0,1.259.006,1.9.019a83.938,83.938,0,0,1,16.863,2.134,109.331,109.331,0,0,1,17,5.444,171.362,171.362,0,0,1,33.886,19.151c20.148,14.314,41.51,34.389,63.493,59.667a727.419,727.419,0,0,1,50.553,65.9c15.284,22.307,25.327,39.2,28.935,45.432,7.314,12.626,13.809,24.489,19.856,36.268,8.813,17.164,16.566,33.972,23.045,49.957,17.853,44.048,26.293,82.216,25.087,113.444-.067,1.741-.166,3.5-.292,5.231h0Z" transform="translate(1702.214 0)" opacity="0.9" fill="url(#linear-gradient)"/>
</svg>
