<?xml version="1.0" encoding="utf-8"?>
<!-- Generator: Adobe Illustrator 24.2.2, SVG Export Plug-In . SVG Version: 6.00 Build 0)  -->
<svg version="1.1" id="Capa_1" xmlns="http://www.w3.org/2000/svg" xmlns:xlink="http://www.w3.org/1999/xlink" x="0px" y="0px"
	 viewBox="0 0 455.7 455.7" style="enable-background:new 0 0 455.7 455.7;" xml:space="preserve">
<style type="text/css">
	.st0{fill:#50ABF1;}
	.st1{fill:#FFFFFF;}
</style>
<g>
	<path class="st0" d="M410,455.7H45.7C20.5,455.7,0,435.3,0,410V45.7C0,20.5,20.5,0,45.7,0H410c25.2,0,45.7,20.5,45.7,45.7V410
		C455.7,435.3,435.3,455.7,410,455.7z"/>
	<path class="st1" d="M60.4,337.8c30.3,19.2,66.3,30.4,104.9,30.4c108.3,0,196.2-87.8,196.2-196.2c0-2.7-0.1-5.4-0.2-8.1
		c3.9-3.1,28.2-22.5,34.1-35c0,0-19.7,8.2-38.9,10.1c0,0-0.1,0-0.1,0c0,0,0,0,0.1-0.1c1.8-1.2,26.6-18.1,30-38.2
		c0,0-13.9,7.4-33.4,13.9c-3.2,1.1-6.6,2.1-10.1,3.1C330.3,104.4,312.4,96,292.6,96c-38,0-68.8,30.8-68.8,68.8
		c0,5.4,0.6,10.6,1.8,15.6c-5.3-0.2-86.2-4.8-141.3-71.4c0,0-32.9,44.9,19.6,91.1c0,0-16-0.6-29.7-8.9c0,0-5.1,54.4,54.4,68.3
		c0,0-11.7,4.4-30.4,1.3c0,0,10.4,44,63.3,48.1C161.4,308.9,119.7,346.7,60.4,337.8L60.4,337.8z"/>
</g>
</svg>
